<mxfile host="Electron" modified="2023-07-22T07:58:58.821Z" agent="Mozilla/5.0 (Windows NT 10.0; Win64; x64) AppleWebKit/537.36 (KHTML, like Gecko) draw.io/21.6.1 Chrome/112.0.5615.204 Electron/24.6.1 Safari/537.36" etag="Nfzu1eSRX5ZcDEF2T6bX" version="21.6.1" type="device">
  <diagram name="CPU Block Diagram" id="xkcR7BumQ8XAYpKNRASl">
    <mxGraphModel dx="702" dy="1701" grid="1" gridSize="2" guides="1" tooltips="1" connect="1" arrows="1" fold="1" page="1" pageScale="1" pageWidth="1654" pageHeight="1169" math="0" shadow="0">
      <root>
        <mxCell id="0" />
        <mxCell id="1" parent="0" />
        <mxCell id="RdgzW_rtt1vIjWclTSuY-46" value="" style="rounded=0;whiteSpace=wrap;html=1;strokeColor=default;fontFamily=Helvetica;fontSize=12;fontColor=default;fillColor=default;allowArrows=0;connectable=0;dashed=1;" parent="1" vertex="1">
          <mxGeometry x="55" y="341" width="270" height="270" as="geometry" />
        </mxCell>
        <mxCell id="RdgzW_rtt1vIjWclTSuY-9" value="" style="edgeStyle=orthogonalEdgeStyle;rounded=0;orthogonalLoop=1;jettySize=auto;html=1;" parent="1" source="RdgzW_rtt1vIjWclTSuY-5" target="RdgzW_rtt1vIjWclTSuY-2" edge="1">
          <mxGeometry relative="1" as="geometry">
            <Array as="points">
              <mxPoint x="295" y="506" />
              <mxPoint x="295" y="506" />
            </Array>
          </mxGeometry>
        </mxCell>
        <mxCell id="RdgzW_rtt1vIjWclTSuY-5" value="PC" style="rounded=0;whiteSpace=wrap;html=1;" parent="1" vertex="1">
          <mxGeometry x="165" y="468.5" width="35" height="75" as="geometry" />
        </mxCell>
        <mxCell id="RdgzW_rtt1vIjWclTSuY-13" style="edgeStyle=orthogonalEdgeStyle;rounded=0;orthogonalLoop=1;jettySize=auto;html=1;exitX=0.5;exitY=0;exitDx=0;exitDy=0;entryX=0;entryY=0.5;entryDx=0;entryDy=0;fontFamily=Helvetica;fontSize=12;fontColor=default;" parent="1" source="RdgzW_rtt1vIjWclTSuY-12" target="RdgzW_rtt1vIjWclTSuY-5" edge="1">
          <mxGeometry relative="1" as="geometry" />
        </mxCell>
        <mxCell id="RdgzW_rtt1vIjWclTSuY-45" style="edgeStyle=orthogonalEdgeStyle;rounded=0;orthogonalLoop=1;jettySize=auto;html=1;exitX=1;exitY=0.5;exitDx=0;exitDy=0;fontFamily=Helvetica;fontSize=12;fontColor=default;entryX=0.25;entryY=1;entryDx=0;entryDy=0;" parent="1" source="RdgzW_rtt1vIjWclTSuY-32" target="RdgzW_rtt1vIjWclTSuY-12" edge="1">
          <mxGeometry relative="1" as="geometry">
            <mxPoint x="320" y="431" as="sourcePoint" />
            <Array as="points">
              <mxPoint x="315" y="426" />
              <mxPoint x="315" y="366" />
              <mxPoint x="75" y="366" />
              <mxPoint x="75" y="482" />
            </Array>
          </mxGeometry>
        </mxCell>
        <mxCell id="RdgzW_rtt1vIjWclTSuY-12" value="0&lt;br&gt;&lt;br&gt;&lt;br&gt;1" style="rounded=1;whiteSpace=wrap;html=1;strokeColor=default;fontFamily=Helvetica;fontSize=12;fontColor=default;fillColor=default;direction=south;arcSize=50;" parent="1" vertex="1">
          <mxGeometry x="95" y="458.5" width="40" height="95" as="geometry" />
        </mxCell>
        <mxCell id="RdgzW_rtt1vIjWclTSuY-32" value="" style="group;allowArrows=1;connectable=1;" parent="1" vertex="1" connectable="0">
          <mxGeometry x="240" y="386" width="60" height="80" as="geometry" />
        </mxCell>
        <mxCell id="RdgzW_rtt1vIjWclTSuY-15" value="" style="endArrow=none;html=1;rounded=0;fontFamily=Helvetica;fontSize=12;fontColor=default;" parent="RdgzW_rtt1vIjWclTSuY-32" edge="1">
          <mxGeometry width="50" height="50" relative="1" as="geometry">
            <mxPoint x="60" y="60" as="sourcePoint" />
            <mxPoint y="80" as="targetPoint" />
          </mxGeometry>
        </mxCell>
        <mxCell id="RdgzW_rtt1vIjWclTSuY-17" value="" style="endArrow=none;html=1;rounded=0;fontFamily=Helvetica;fontSize=12;fontColor=default;" parent="RdgzW_rtt1vIjWclTSuY-32" edge="1">
          <mxGeometry width="50" height="50" relative="1" as="geometry">
            <mxPoint x="60" y="60" as="sourcePoint" />
            <mxPoint x="60" y="20" as="targetPoint" />
          </mxGeometry>
        </mxCell>
        <mxCell id="RdgzW_rtt1vIjWclTSuY-20" value="" style="endArrow=none;html=1;rounded=0;fontFamily=Helvetica;fontSize=12;fontColor=default;" parent="RdgzW_rtt1vIjWclTSuY-32" edge="1">
          <mxGeometry width="50" height="50" relative="1" as="geometry">
            <mxPoint as="sourcePoint" />
            <mxPoint x="60" y="20" as="targetPoint" />
          </mxGeometry>
        </mxCell>
        <mxCell id="RdgzW_rtt1vIjWclTSuY-21" value="" style="endArrow=none;html=1;rounded=0;fontFamily=Helvetica;fontSize=12;fontColor=default;" parent="RdgzW_rtt1vIjWclTSuY-32" edge="1">
          <mxGeometry width="50" height="50" relative="1" as="geometry">
            <mxPoint y="30" as="sourcePoint" />
            <mxPoint as="targetPoint" />
          </mxGeometry>
        </mxCell>
        <mxCell id="RdgzW_rtt1vIjWclTSuY-22" value="" style="endArrow=none;html=1;rounded=0;fontFamily=Helvetica;fontSize=12;fontColor=default;" parent="RdgzW_rtt1vIjWclTSuY-32" edge="1">
          <mxGeometry width="50" height="50" relative="1" as="geometry">
            <mxPoint y="80" as="sourcePoint" />
            <mxPoint y="50" as="targetPoint" />
          </mxGeometry>
        </mxCell>
        <mxCell id="RdgzW_rtt1vIjWclTSuY-23" value="" style="endArrow=none;html=1;rounded=0;fontFamily=Helvetica;fontSize=12;fontColor=default;" parent="RdgzW_rtt1vIjWclTSuY-32" edge="1">
          <mxGeometry width="50" height="50" relative="1" as="geometry">
            <mxPoint y="30" as="sourcePoint" />
            <mxPoint x="20" y="40" as="targetPoint" />
          </mxGeometry>
        </mxCell>
        <mxCell id="RdgzW_rtt1vIjWclTSuY-24" value="" style="endArrow=none;html=1;rounded=0;fontFamily=Helvetica;fontSize=12;fontColor=default;" parent="RdgzW_rtt1vIjWclTSuY-32" edge="1">
          <mxGeometry width="50" height="50" relative="1" as="geometry">
            <mxPoint x="20" y="40" as="sourcePoint" />
            <mxPoint y="50" as="targetPoint" />
          </mxGeometry>
        </mxCell>
        <mxCell id="RdgzW_rtt1vIjWclTSuY-42" value="&lt;font style=&quot;font-size: 18px;&quot;&gt;+&lt;/font&gt;" style="text;html=1;align=center;verticalAlign=middle;resizable=0;points=[];autosize=1;strokeColor=none;fillColor=none;fontSize=12;fontFamily=Helvetica;fontColor=default;allowArrows=0;connectable=0;" parent="RdgzW_rtt1vIjWclTSuY-32" vertex="1">
          <mxGeometry x="15" y="20" width="30" height="40" as="geometry" />
        </mxCell>
        <mxCell id="RdgzW_rtt1vIjWclTSuY-33" value="" style="group" parent="1" vertex="1" connectable="0">
          <mxGeometry x="360" y="466" width="90" height="152.5" as="geometry" />
        </mxCell>
        <mxCell id="RdgzW_rtt1vIjWclTSuY-2" value="Instruction&lt;br&gt;Memory" style="rounded=0;whiteSpace=wrap;html=1;spacingTop=20;" parent="RdgzW_rtt1vIjWclTSuY-33" vertex="1">
          <mxGeometry width="90" height="152.5" as="geometry" />
        </mxCell>
        <mxCell id="RdgzW_rtt1vIjWclTSuY-3" value="Address" style="text;html=1;align=center;verticalAlign=middle;resizable=0;autosize=1;strokeColor=none;fillColor=none;shadow=0;connectable=0;allowArrows=0;" parent="RdgzW_rtt1vIjWclTSuY-33" vertex="1">
          <mxGeometry y="25.416666666666664" width="70" height="30" as="geometry" />
        </mxCell>
        <mxCell id="RdgzW_rtt1vIjWclTSuY-35" value="" style="endArrow=classic;html=1;rounded=0;fontFamily=Helvetica;fontSize=12;fontColor=default;edgeStyle=orthogonalEdgeStyle;" parent="1" edge="1">
          <mxGeometry width="50" height="50" relative="1" as="geometry">
            <mxPoint x="220" y="506" as="sourcePoint" />
            <mxPoint x="240" y="451" as="targetPoint" />
            <Array as="points">
              <mxPoint x="220" y="451" />
              <mxPoint x="240" y="451" />
            </Array>
          </mxGeometry>
        </mxCell>
        <mxCell id="RdgzW_rtt1vIjWclTSuY-41" style="edgeStyle=none;rounded=0;orthogonalLoop=1;jettySize=auto;html=1;exitX=1;exitY=0.5;exitDx=0;exitDy=0;fontFamily=Helvetica;fontSize=12;fontColor=default;" parent="1" source="RdgzW_rtt1vIjWclTSuY-40" edge="1">
          <mxGeometry relative="1" as="geometry">
            <mxPoint x="240" y="398.51724137931035" as="targetPoint" />
          </mxGeometry>
        </mxCell>
        <mxCell id="RdgzW_rtt1vIjWclTSuY-40" value="4" style="rounded=0;whiteSpace=wrap;html=1;strokeColor=default;fontFamily=Helvetica;fontSize=12;fontColor=default;fillColor=default;" parent="1" vertex="1">
          <mxGeometry x="185" y="386" width="25" height="25" as="geometry" />
        </mxCell>
        <mxCell id="RdgzW_rtt1vIjWclTSuY-47" value="PC Container" style="text;html=1;align=center;verticalAlign=middle;resizable=0;points=[];autosize=1;strokeColor=none;fillColor=none;fontSize=12;fontFamily=Helvetica;fontColor=default;allowArrows=0;connectable=0;" parent="1" vertex="1">
          <mxGeometry x="145" y="586" width="95" height="30" as="geometry" />
        </mxCell>
        <mxCell id="RdgzW_rtt1vIjWclTSuY-57" style="edgeStyle=orthogonalEdgeStyle;rounded=0;orthogonalLoop=1;jettySize=auto;html=1;fontFamily=Helvetica;fontSize=12;fontColor=default;entryX=0;entryY=0.25;entryDx=0;entryDy=0;entryPerimeter=0;" parent="1" edge="1">
          <mxGeometry relative="1" as="geometry">
            <mxPoint x="540" y="400" as="targetPoint" />
            <mxPoint x="342" y="506" as="sourcePoint" />
            <Array as="points">
              <mxPoint x="340" y="400.25" />
            </Array>
          </mxGeometry>
        </mxCell>
        <mxCell id="RdgzW_rtt1vIjWclTSuY-58" value="PC" style="edgeLabel;html=1;align=center;verticalAlign=middle;resizable=0;points=[];fontSize=12;fontFamily=Helvetica;fontColor=default;" parent="RdgzW_rtt1vIjWclTSuY-57" vertex="1" connectable="0">
          <mxGeometry x="0.2442" y="1" relative="1" as="geometry">
            <mxPoint as="offset" />
          </mxGeometry>
        </mxCell>
        <mxCell id="RdgzW_rtt1vIjWclTSuY-48" value="" style="rounded=0;whiteSpace=wrap;html=1;strokeColor=default;fontFamily=Helvetica;fontSize=12;fontColor=default;fillColor=default;points=[[0,0,0,0,0],[0,0.25,0,0,0],[0,0.34,0,0,0],[0,0.5,0,0,0],[0,0.58,0,0,0],[0,0.75,0,0,0],[0,1,0,0,0],[0.25,0,0,0,0],[0.25,1,0,0,0],[0.5,0,0,0,0],[0.5,1,0,0,0],[0.75,0,0,0,0],[0.75,1,0,0,0],[1,0,0,0,0],[1,0.25,0,0,0],[1,0.5,0,0,0],[1,0.75,0,0,0],[1,1,0,0,0]];" parent="1" vertex="1">
          <mxGeometry x="540" y="331" width="20" height="415" as="geometry" />
        </mxCell>
        <mxCell id="RdgzW_rtt1vIjWclTSuY-53" style="edgeStyle=orthogonalEdgeStyle;rounded=0;orthogonalLoop=1;jettySize=auto;html=1;exitX=1;exitY=0.5;exitDx=0;exitDy=0;entryX=0.083;entryY=0.511;entryDx=0;entryDy=0;entryPerimeter=0;fontFamily=Helvetica;fontSize=12;fontColor=default;" parent="1" source="RdgzW_rtt1vIjWclTSuY-2" target="RdgzW_rtt1vIjWclTSuY-48" edge="1">
          <mxGeometry relative="1" as="geometry" />
        </mxCell>
        <mxCell id="RdgzW_rtt1vIjWclTSuY-54" value="Instruction" style="edgeLabel;html=1;align=center;verticalAlign=middle;resizable=0;points=[];fontSize=12;fontFamily=Helvetica;fontColor=default;" parent="RdgzW_rtt1vIjWclTSuY-53" vertex="1" connectable="0">
          <mxGeometry x="0.1525" y="1" relative="1" as="geometry">
            <mxPoint x="-18" as="offset" />
          </mxGeometry>
        </mxCell>
        <mxCell id="RdgzW_rtt1vIjWclTSuY-59" value="Register&lt;br&gt;File" style="rounded=0;whiteSpace=wrap;html=1;strokeColor=default;fontFamily=Helvetica;fontSize=12;fontColor=default;fillColor=default;spacingTop=15;" parent="1" vertex="1">
          <mxGeometry x="645" y="441" width="103" height="185" as="geometry" />
        </mxCell>
        <mxCell id="RdgzW_rtt1vIjWclTSuY-69" value="" style="endArrow=classic;html=1;rounded=0;fontFamily=Helvetica;fontSize=12;fontColor=default;" parent="1" edge="1">
          <mxGeometry width="50" height="50" relative="1" as="geometry">
            <mxPoint x="580" y="544" as="sourcePoint" />
            <mxPoint x="644" y="469" as="targetPoint" />
            <Array as="points">
              <mxPoint x="580" y="469" />
            </Array>
          </mxGeometry>
        </mxCell>
        <mxCell id="bkDX0ZASANKWbIawWrTS-4" value="1" style="edgeLabel;html=1;align=center;verticalAlign=middle;resizable=0;points=[];" parent="RdgzW_rtt1vIjWclTSuY-69" vertex="1" connectable="0">
          <mxGeometry x="0.2662" relative="1" as="geometry">
            <mxPoint as="offset" />
          </mxGeometry>
        </mxCell>
        <mxCell id="RdgzW_rtt1vIjWclTSuY-70" value="Rs1" style="text;html=1;align=center;verticalAlign=middle;resizable=0;points=[];autosize=1;strokeColor=none;fillColor=none;fontSize=12;fontFamily=Helvetica;fontColor=default;allowArrows=0;connectable=0;" parent="1" vertex="1">
          <mxGeometry x="640" y="454" width="40" height="30" as="geometry" />
        </mxCell>
        <mxCell id="RdgzW_rtt1vIjWclTSuY-72" value="Rs2" style="text;html=1;align=center;verticalAlign=middle;resizable=0;points=[];autosize=1;strokeColor=none;fillColor=none;fontSize=12;fontFamily=Helvetica;fontColor=default;allowArrows=0;connectable=0;" parent="1" vertex="1">
          <mxGeometry x="640" y="497" width="40" height="28" as="geometry" />
        </mxCell>
        <mxCell id="RdgzW_rtt1vIjWclTSuY-78" style="edgeStyle=orthogonalEdgeStyle;rounded=0;orthogonalLoop=1;jettySize=auto;html=1;fontFamily=Helvetica;fontSize=12;fontColor=default;" parent="1" target="RdgzW_rtt1vIjWclTSuY-73" edge="1">
          <mxGeometry relative="1" as="geometry">
            <mxPoint x="580" y="542" as="sourcePoint" />
            <Array as="points">
              <mxPoint x="580" y="726" />
            </Array>
          </mxGeometry>
        </mxCell>
        <mxCell id="RdgzW_rtt1vIjWclTSuY-90" value="" style="edgeStyle=orthogonalEdgeStyle;rounded=0;orthogonalLoop=1;jettySize=auto;html=1;exitX=1;exitY=0.5;exitDx=0;exitDy=0;fontFamily=Helvetica;fontSize=12;fontColor=default;entryX=-0.048;entryY=0.58;entryDx=0;entryDy=0;entryPerimeter=0;" parent="1" source="RdgzW_rtt1vIjWclTSuY-73" target="RdgzW_rtt1vIjWclTSuY-79" edge="1">
          <mxGeometry relative="1" as="geometry">
            <mxPoint x="784" y="727" as="targetPoint" />
          </mxGeometry>
        </mxCell>
        <mxCell id="bkDX0ZASANKWbIawWrTS-6" value="x" style="edgeLabel;html=1;align=center;verticalAlign=middle;resizable=0;points=[];" parent="RdgzW_rtt1vIjWclTSuY-90" vertex="1" connectable="0">
          <mxGeometry x="-0.0669" y="-2" relative="1" as="geometry">
            <mxPoint y="-2" as="offset" />
          </mxGeometry>
        </mxCell>
        <mxCell id="RdgzW_rtt1vIjWclTSuY-73" value="Immediate&lt;br&gt;Generator" style="ellipse;whiteSpace=wrap;html=1;strokeColor=default;fontFamily=Helvetica;fontSize=12;fontColor=default;fillColor=default;" parent="1" vertex="1">
          <mxGeometry x="618" y="691" width="75" height="71" as="geometry" />
        </mxCell>
        <mxCell id="RdgzW_rtt1vIjWclTSuY-76" value="" style="endArrow=classic;html=1;rounded=0;fontFamily=Helvetica;fontSize=12;fontColor=default;exitX=0.981;exitY=0.511;exitDx=0;exitDy=0;exitPerimeter=0;" parent="1" source="RdgzW_rtt1vIjWclTSuY-48" edge="1">
          <mxGeometry width="50" height="50" relative="1" as="geometry">
            <mxPoint x="570" y="551" as="sourcePoint" />
            <mxPoint x="580" y="543" as="targetPoint" />
          </mxGeometry>
        </mxCell>
        <mxCell id="RdgzW_rtt1vIjWclTSuY-77" value="" style="endArrow=classic;html=1;rounded=0;fontFamily=Helvetica;fontSize=12;fontColor=default;" parent="1" edge="1">
          <mxGeometry width="50" height="50" relative="1" as="geometry">
            <mxPoint x="580" y="510" as="sourcePoint" />
            <mxPoint x="644" y="510" as="targetPoint" />
          </mxGeometry>
        </mxCell>
        <mxCell id="bkDX0ZASANKWbIawWrTS-5" value="1" style="edgeLabel;html=1;align=center;verticalAlign=middle;resizable=0;points=[];" parent="RdgzW_rtt1vIjWclTSuY-77" vertex="1" connectable="0">
          <mxGeometry x="-0.7187" relative="1" as="geometry">
            <mxPoint as="offset" />
          </mxGeometry>
        </mxCell>
        <mxCell id="RdgzW_rtt1vIjWclTSuY-79" value="" style="rounded=0;whiteSpace=wrap;html=1;strokeColor=default;fontFamily=Helvetica;fontSize=12;fontColor=default;fillColor=default;" parent="1" vertex="1">
          <mxGeometry x="792" y="384" width="20" height="592" as="geometry" />
        </mxCell>
        <mxCell id="RdgzW_rtt1vIjWclTSuY-83" value="" style="endArrow=classic;html=1;rounded=0;fontFamily=Helvetica;fontSize=12;fontColor=default;exitX=1;exitY=0.166;exitDx=0;exitDy=0;exitPerimeter=0;movable=1;resizable=1;rotatable=1;deletable=1;editable=1;locked=0;connectable=1;snapToPoint=1;entryX=0;entryY=0.03;entryDx=0;entryDy=0;entryPerimeter=0;" parent="1" source="RdgzW_rtt1vIjWclTSuY-48" target="RdgzW_rtt1vIjWclTSuY-79" edge="1">
          <mxGeometry width="50" height="50" relative="1" as="geometry">
            <mxPoint x="564" y="400" as="sourcePoint" />
            <mxPoint x="772" y="428" as="targetPoint" />
          </mxGeometry>
        </mxCell>
        <mxCell id="RdgzW_rtt1vIjWclTSuY-85" value="" style="endArrow=classic;html=1;rounded=0;fontFamily=Helvetica;fontSize=12;fontColor=default;" parent="1" edge="1">
          <mxGeometry width="50" height="50" relative="1" as="geometry">
            <mxPoint x="748" y="504" as="sourcePoint" />
            <mxPoint x="792" y="504" as="targetPoint" />
          </mxGeometry>
        </mxCell>
        <mxCell id="bkDX0ZASANKWbIawWrTS-10" value="0" style="edgeLabel;html=1;align=center;verticalAlign=middle;resizable=0;points=[];" parent="RdgzW_rtt1vIjWclTSuY-85" vertex="1" connectable="0">
          <mxGeometry x="0.1894" y="-3" relative="1" as="geometry">
            <mxPoint y="-3" as="offset" />
          </mxGeometry>
        </mxCell>
        <mxCell id="RdgzW_rtt1vIjWclTSuY-87" value="Rs1_data" style="text;html=1;align=center;verticalAlign=middle;resizable=0;points=[];autosize=1;strokeColor=none;fillColor=none;fontSize=12;fontFamily=Helvetica;fontColor=default;allowArrows=0;connectable=0;" parent="1" vertex="1">
          <mxGeometry x="686" y="490" width="70" height="28" as="geometry" />
        </mxCell>
        <mxCell id="RdgzW_rtt1vIjWclTSuY-88" value="Rs2_data" style="text;html=1;align=center;verticalAlign=middle;resizable=0;points=[];autosize=1;strokeColor=none;fillColor=none;fontSize=12;fontFamily=Helvetica;fontColor=default;allowArrows=0;connectable=0;" parent="1" vertex="1">
          <mxGeometry x="686" y="586" width="70" height="28" as="geometry" />
        </mxCell>
        <mxCell id="RdgzW_rtt1vIjWclTSuY-89" value="" style="endArrow=classic;html=1;rounded=0;fontFamily=Helvetica;fontSize=12;fontColor=default;entryX=-0.019;entryY=0.365;entryDx=0;entryDy=0;entryPerimeter=0;" parent="1" target="RdgzW_rtt1vIjWclTSuY-79" edge="1">
          <mxGeometry width="50" height="50" relative="1" as="geometry">
            <mxPoint x="748" y="600" as="sourcePoint" />
            <mxPoint x="788" y="600" as="targetPoint" />
          </mxGeometry>
        </mxCell>
        <mxCell id="bkDX0ZASANKWbIawWrTS-11" value="0" style="edgeLabel;html=1;align=center;verticalAlign=middle;resizable=0;points=[];" parent="RdgzW_rtt1vIjWclTSuY-89" vertex="1" connectable="0">
          <mxGeometry x="0.1616" relative="1" as="geometry">
            <mxPoint as="offset" />
          </mxGeometry>
        </mxCell>
        <mxCell id="RdgzW_rtt1vIjWclTSuY-91" value="" style="endArrow=classic;html=1;rounded=0;fontFamily=Helvetica;fontSize=12;fontColor=default;entryX=-0.073;entryY=0.729;entryDx=0;entryDy=0;entryPerimeter=0;" parent="1" target="RdgzW_rtt1vIjWclTSuY-79" edge="1">
          <mxGeometry width="50" height="50" relative="1" as="geometry">
            <mxPoint x="580" y="726" as="sourcePoint" />
            <mxPoint x="782" y="816" as="targetPoint" />
            <Array as="points">
              <mxPoint x="580" y="816" />
            </Array>
          </mxGeometry>
        </mxCell>
        <mxCell id="RdgzW_rtt1vIjWclTSuY-114" value="Func7" style="edgeLabel;html=1;align=center;verticalAlign=middle;resizable=0;points=[];fontSize=12;fontFamily=Helvetica;fontColor=default;" parent="RdgzW_rtt1vIjWclTSuY-91" vertex="1" connectable="0">
          <mxGeometry x="-0.1371" relative="1" as="geometry">
            <mxPoint x="42" as="offset" />
          </mxGeometry>
        </mxCell>
        <mxCell id="RdgzW_rtt1vIjWclTSuY-92" value="x" style="endArrow=classic;html=1;rounded=0;fontFamily=Helvetica;fontSize=12;fontColor=default;" parent="1" edge="1">
          <mxGeometry width="50" height="50" relative="1" as="geometry">
            <mxPoint x="580" y="800" as="sourcePoint" />
            <mxPoint x="792" y="848" as="targetPoint" />
            <Array as="points">
              <mxPoint x="580" y="848" />
            </Array>
          </mxGeometry>
        </mxCell>
        <mxCell id="RdgzW_rtt1vIjWclTSuY-121" value="rd" style="edgeLabel;html=1;align=center;verticalAlign=middle;resizable=0;points=[];fontSize=12;fontFamily=Helvetica;fontColor=default;" parent="RdgzW_rtt1vIjWclTSuY-92" vertex="1" connectable="0">
          <mxGeometry x="-0.2974" relative="1" as="geometry">
            <mxPoint x="38" as="offset" />
          </mxGeometry>
        </mxCell>
        <mxCell id="bkDX0ZASANKWbIawWrTS-7" value="2" style="edgeLabel;html=1;align=center;verticalAlign=middle;resizable=0;points=[];" parent="RdgzW_rtt1vIjWclTSuY-92" vertex="1" connectable="0">
          <mxGeometry x="0.5295" y="1" relative="1" as="geometry">
            <mxPoint as="offset" />
          </mxGeometry>
        </mxCell>
        <mxCell id="RdgzW_rtt1vIjWclTSuY-96" value="" style="endArrow=none;html=1;rounded=0;fontFamily=Helvetica;fontSize=12;fontColor=default;" parent="1" edge="1">
          <mxGeometry width="50" height="50" relative="1" as="geometry">
            <mxPoint x="517" y="536" as="sourcePoint" />
            <mxPoint x="523" y="550" as="targetPoint" />
          </mxGeometry>
        </mxCell>
        <mxCell id="RdgzW_rtt1vIjWclTSuY-97" value="32" style="text;html=1;align=center;verticalAlign=middle;resizable=0;points=[];autosize=1;strokeColor=none;fillColor=none;fontSize=8;fontFamily=Helvetica;fontColor=default;allowArrows=0;connectable=0;" parent="1" vertex="1">
          <mxGeometry x="510" y="524" width="28" height="24" as="geometry" />
        </mxCell>
        <mxCell id="RdgzW_rtt1vIjWclTSuY-101" value="" style="endArrow=none;html=1;rounded=0;fontFamily=Helvetica;fontSize=12;fontColor=default;" parent="1" edge="1">
          <mxGeometry width="50" height="50" relative="1" as="geometry">
            <mxPoint x="292" y="500.5" as="sourcePoint" />
            <mxPoint x="298" y="514.5" as="targetPoint" />
          </mxGeometry>
        </mxCell>
        <mxCell id="RdgzW_rtt1vIjWclTSuY-102" value="32" style="text;html=1;align=center;verticalAlign=middle;resizable=0;points=[];autosize=1;strokeColor=none;fillColor=none;fontSize=8;fontFamily=Helvetica;fontColor=default;allowArrows=0;connectable=0;" parent="1" vertex="1">
          <mxGeometry x="278" y="482" width="28" height="24" as="geometry" />
        </mxCell>
        <mxCell id="RdgzW_rtt1vIjWclTSuY-103" value="" style="endArrow=none;html=1;rounded=0;fontFamily=Helvetica;fontSize=12;fontColor=default;" parent="1" edge="1">
          <mxGeometry width="50" height="50" relative="1" as="geometry">
            <mxPoint x="619" y="462" as="sourcePoint" />
            <mxPoint x="625" y="476" as="targetPoint" />
          </mxGeometry>
        </mxCell>
        <mxCell id="RdgzW_rtt1vIjWclTSuY-104" value="&lt;font style=&quot;font-size: 8px;&quot;&gt;5&lt;/font&gt;" style="text;html=1;align=center;verticalAlign=middle;resizable=0;points=[];autosize=1;strokeColor=none;fillColor=none;fontSize=8;fontFamily=Helvetica;fontColor=default;allowArrows=0;connectable=0;" parent="1" vertex="1">
          <mxGeometry x="615" y="450" width="24" height="24" as="geometry" />
        </mxCell>
        <mxCell id="RdgzW_rtt1vIjWclTSuY-105" value="&lt;font style=&quot;font-size: 8px;&quot;&gt;[19:15]&lt;/font&gt;" style="text;html=1;align=center;verticalAlign=middle;resizable=0;points=[];autosize=1;strokeColor=none;fillColor=none;fontSize=8;fontFamily=Helvetica;fontColor=default;allowArrows=0;connectable=0;" parent="1" vertex="1">
          <mxGeometry x="601" y="468" width="44" height="24" as="geometry" />
        </mxCell>
        <mxCell id="RdgzW_rtt1vIjWclTSuY-109" value="" style="endArrow=none;html=1;rounded=0;fontFamily=Helvetica;fontSize=12;fontColor=default;" parent="1" edge="1">
          <mxGeometry width="50" height="50" relative="1" as="geometry">
            <mxPoint x="619" y="501" as="sourcePoint" />
            <mxPoint x="625" y="515" as="targetPoint" />
          </mxGeometry>
        </mxCell>
        <mxCell id="RdgzW_rtt1vIjWclTSuY-110" value="&lt;font style=&quot;font-size: 8px;&quot;&gt;5&lt;/font&gt;" style="text;html=1;align=center;verticalAlign=middle;resizable=0;points=[];autosize=1;strokeColor=none;fillColor=none;fontSize=12;fontFamily=Helvetica;fontColor=default;allowArrows=0;connectable=0;" parent="1" vertex="1">
          <mxGeometry x="615" y="487" width="24" height="28" as="geometry" />
        </mxCell>
        <mxCell id="RdgzW_rtt1vIjWclTSuY-111" value="&lt;font style=&quot;font-size: 8px;&quot;&gt;[24:20]&lt;/font&gt;" style="text;html=1;align=center;verticalAlign=middle;resizable=0;points=[];autosize=1;strokeColor=none;fillColor=none;fontSize=12;fontFamily=Helvetica;fontColor=default;allowArrows=0;connectable=0;" parent="1" vertex="1">
          <mxGeometry x="601" y="505" width="44" height="28" as="geometry" />
        </mxCell>
        <mxCell id="RdgzW_rtt1vIjWclTSuY-112" value="" style="endArrow=classic;html=1;rounded=0;fontFamily=Helvetica;fontSize=12;fontColor=default;entryX=0.01;entryY=0.674;entryDx=0;entryDy=0;entryPerimeter=0;" parent="1" target="RdgzW_rtt1vIjWclTSuY-79" edge="1">
          <mxGeometry width="50" height="50" relative="1" as="geometry">
            <mxPoint x="580" y="783" as="sourcePoint" />
            <mxPoint x="784" y="784" as="targetPoint" />
          </mxGeometry>
        </mxCell>
        <mxCell id="RdgzW_rtt1vIjWclTSuY-113" value="Func3" style="edgeLabel;html=1;align=center;verticalAlign=middle;resizable=0;points=[];fontSize=12;fontFamily=Helvetica;fontColor=default;" parent="RdgzW_rtt1vIjWclTSuY-112" vertex="1" connectable="0">
          <mxGeometry x="-0.5818" y="2" relative="1" as="geometry">
            <mxPoint x="38" y="3" as="offset" />
          </mxGeometry>
        </mxCell>
        <mxCell id="RdgzW_rtt1vIjWclTSuY-115" value="" style="endArrow=none;html=1;rounded=0;fontFamily=Helvetica;fontSize=12;fontColor=default;" parent="1" edge="1">
          <mxGeometry width="50" height="50" relative="1" as="geometry">
            <mxPoint x="696" y="776" as="sourcePoint" />
            <mxPoint x="702" y="790" as="targetPoint" />
          </mxGeometry>
        </mxCell>
        <mxCell id="RdgzW_rtt1vIjWclTSuY-116" value="&lt;font style=&quot;font-size: 8px;&quot;&gt;3&lt;/font&gt;" style="text;html=1;align=center;verticalAlign=middle;resizable=0;points=[];autosize=1;strokeColor=none;fillColor=none;fontSize=12;fontFamily=Helvetica;fontColor=default;allowArrows=0;connectable=0;" parent="1" vertex="1">
          <mxGeometry x="691" y="762" width="24" height="28" as="geometry" />
        </mxCell>
        <mxCell id="RdgzW_rtt1vIjWclTSuY-117" value="&lt;font style=&quot;font-size: 8px;&quot;&gt;[14:12]&lt;/font&gt;" style="text;html=1;align=center;verticalAlign=middle;resizable=0;points=[];autosize=1;strokeColor=none;fillColor=none;fontSize=12;fontFamily=Helvetica;fontColor=default;allowArrows=0;connectable=0;" parent="1" vertex="1">
          <mxGeometry x="677" y="780" width="44" height="28" as="geometry" />
        </mxCell>
        <mxCell id="RdgzW_rtt1vIjWclTSuY-118" value="" style="endArrow=none;html=1;rounded=0;fontFamily=Helvetica;fontSize=12;fontColor=default;" parent="1" edge="1">
          <mxGeometry width="50" height="50" relative="1" as="geometry">
            <mxPoint x="696" y="808" as="sourcePoint" />
            <mxPoint x="702" y="822" as="targetPoint" />
          </mxGeometry>
        </mxCell>
        <mxCell id="RdgzW_rtt1vIjWclTSuY-119" value="&lt;font style=&quot;font-size: 8px;&quot;&gt;7&lt;/font&gt;" style="text;html=1;align=center;verticalAlign=middle;resizable=0;points=[];autosize=1;strokeColor=none;fillColor=none;fontSize=12;fontFamily=Helvetica;fontColor=default;allowArrows=0;connectable=0;" parent="1" vertex="1">
          <mxGeometry x="691" y="794" width="24" height="28" as="geometry" />
        </mxCell>
        <mxCell id="RdgzW_rtt1vIjWclTSuY-120" value="&lt;font style=&quot;font-size: 8px;&quot;&gt;[31:25]&lt;/font&gt;" style="text;html=1;align=center;verticalAlign=middle;resizable=0;points=[];autosize=1;strokeColor=none;fillColor=none;fontSize=12;fontFamily=Helvetica;fontColor=default;allowArrows=0;connectable=0;" parent="1" vertex="1">
          <mxGeometry x="677" y="812" width="44" height="28" as="geometry" />
        </mxCell>
        <mxCell id="RdgzW_rtt1vIjWclTSuY-122" value="" style="endArrow=none;html=1;rounded=0;fontFamily=Helvetica;fontSize=12;fontColor=default;" parent="1" edge="1">
          <mxGeometry width="50" height="50" relative="1" as="geometry">
            <mxPoint x="694" y="840" as="sourcePoint" />
            <mxPoint x="700" y="854" as="targetPoint" />
          </mxGeometry>
        </mxCell>
        <mxCell id="RdgzW_rtt1vIjWclTSuY-123" value="&lt;font style=&quot;font-size: 8px;&quot;&gt;5&lt;/font&gt;" style="text;html=1;align=center;verticalAlign=middle;resizable=0;points=[];autosize=1;strokeColor=none;fillColor=none;fontSize=12;fontFamily=Helvetica;fontColor=default;allowArrows=0;connectable=0;" parent="1" vertex="1">
          <mxGeometry x="689" y="826" width="24" height="28" as="geometry" />
        </mxCell>
        <mxCell id="RdgzW_rtt1vIjWclTSuY-124" value="&lt;font style=&quot;font-size: 8px;&quot;&gt;[11:7]&lt;/font&gt;" style="text;html=1;align=center;verticalAlign=middle;resizable=0;points=[];autosize=1;strokeColor=none;fillColor=none;fontSize=12;fontFamily=Helvetica;fontColor=default;allowArrows=0;connectable=0;" parent="1" vertex="1">
          <mxGeometry x="678" y="844" width="38" height="28" as="geometry" />
        </mxCell>
        <mxCell id="RdgzW_rtt1vIjWclTSuY-167" style="edgeStyle=orthogonalEdgeStyle;rounded=0;orthogonalLoop=1;jettySize=auto;html=1;exitX=1;exitY=0.5;exitDx=0;exitDy=0;fontFamily=Helvetica;fontSize=12;fontColor=default;entryX=-0.062;entryY=0.092;entryDx=0;entryDy=0;entryPerimeter=0;" parent="1" source="RdgzW_rtt1vIjWclTSuY-126" target="RdgzW_rtt1vIjWclTSuY-166" edge="1">
          <mxGeometry relative="1" as="geometry">
            <mxPoint x="1146" y="412.51612903225805" as="targetPoint" />
          </mxGeometry>
        </mxCell>
        <mxCell id="RdgzW_rtt1vIjWclTSuY-126" value="Branch&lt;br&gt;Calculator" style="rounded=0;whiteSpace=wrap;html=1;strokeColor=default;fontFamily=Helvetica;fontSize=12;fontColor=default;fillColor=default;" parent="1" vertex="1">
          <mxGeometry x="864" y="384" width="72" height="57" as="geometry" />
        </mxCell>
        <mxCell id="RdgzW_rtt1vIjWclTSuY-127" value="" style="endArrow=classic;html=1;rounded=0;fontFamily=Helvetica;fontSize=12;fontColor=default;entryX=-0.002;entryY=0.28;entryDx=0;entryDy=0;entryPerimeter=0;" parent="1" target="RdgzW_rtt1vIjWclTSuY-126" edge="1">
          <mxGeometry width="50" height="50" relative="1" as="geometry">
            <mxPoint x="812" y="400" as="sourcePoint" />
            <mxPoint x="862" y="350" as="targetPoint" />
          </mxGeometry>
        </mxCell>
        <mxCell id="RdgzW_rtt1vIjWclTSuY-129" value="" style="endArrow=classic;html=1;rounded=0;fontFamily=Helvetica;fontSize=12;fontColor=default;entryX=0.001;entryY=0.701;entryDx=0;entryDy=0;entryPerimeter=0;fillColor=#f8cecc;strokeColor=#b85450;" parent="1" target="RdgzW_rtt1vIjWclTSuY-126" edge="1">
          <mxGeometry width="50" height="50" relative="1" as="geometry">
            <mxPoint x="812" y="728" as="sourcePoint" />
            <mxPoint x="862" y="678" as="targetPoint" />
            <Array as="points">
              <mxPoint x="820" y="728" />
              <mxPoint x="820" y="424" />
            </Array>
          </mxGeometry>
        </mxCell>
        <mxCell id="RdgzW_rtt1vIjWclTSuY-146" value="" style="group;allowArrows=1;connectable=1;" parent="1" vertex="1" connectable="0">
          <mxGeometry x="1016" y="528" width="106" height="150" as="geometry" />
        </mxCell>
        <mxCell id="RdgzW_rtt1vIjWclTSuY-147" value="" style="endArrow=none;html=1;rounded=0;fontFamily=Helvetica;fontSize=12;fontColor=default;" parent="RdgzW_rtt1vIjWclTSuY-146" edge="1">
          <mxGeometry width="50" height="50" relative="1" as="geometry">
            <mxPoint x="100" y="112.50000000000001" as="sourcePoint" />
            <mxPoint y="150" as="targetPoint" />
          </mxGeometry>
        </mxCell>
        <mxCell id="RdgzW_rtt1vIjWclTSuY-148" value="" style="endArrow=none;html=1;rounded=0;fontFamily=Helvetica;fontSize=12;fontColor=default;" parent="RdgzW_rtt1vIjWclTSuY-146" edge="1">
          <mxGeometry width="50" height="50" relative="1" as="geometry">
            <mxPoint x="100" y="112.50000000000001" as="sourcePoint" />
            <mxPoint x="100" y="37.5" as="targetPoint" />
          </mxGeometry>
        </mxCell>
        <mxCell id="RdgzW_rtt1vIjWclTSuY-149" value="" style="endArrow=none;html=1;rounded=0;fontFamily=Helvetica;fontSize=12;fontColor=default;" parent="RdgzW_rtt1vIjWclTSuY-146" edge="1">
          <mxGeometry width="50" height="50" relative="1" as="geometry">
            <mxPoint as="sourcePoint" />
            <mxPoint x="100" y="37.5" as="targetPoint" />
          </mxGeometry>
        </mxCell>
        <mxCell id="RdgzW_rtt1vIjWclTSuY-150" value="" style="endArrow=none;html=1;rounded=0;fontFamily=Helvetica;fontSize=12;fontColor=default;" parent="RdgzW_rtt1vIjWclTSuY-146" edge="1">
          <mxGeometry width="50" height="50" relative="1" as="geometry">
            <mxPoint y="56.25000000000001" as="sourcePoint" />
            <mxPoint as="targetPoint" />
          </mxGeometry>
        </mxCell>
        <mxCell id="RdgzW_rtt1vIjWclTSuY-151" value="" style="endArrow=none;html=1;rounded=0;fontFamily=Helvetica;fontSize=12;fontColor=default;" parent="RdgzW_rtt1vIjWclTSuY-146" edge="1">
          <mxGeometry width="50" height="50" relative="1" as="geometry">
            <mxPoint y="150" as="sourcePoint" />
            <mxPoint y="93.75000000000001" as="targetPoint" />
          </mxGeometry>
        </mxCell>
        <mxCell id="RdgzW_rtt1vIjWclTSuY-152" value="" style="endArrow=none;html=1;rounded=0;fontFamily=Helvetica;fontSize=12;fontColor=default;" parent="RdgzW_rtt1vIjWclTSuY-146" edge="1">
          <mxGeometry width="50" height="50" relative="1" as="geometry">
            <mxPoint y="56.25000000000001" as="sourcePoint" />
            <mxPoint x="33.333333333333336" y="75" as="targetPoint" />
          </mxGeometry>
        </mxCell>
        <mxCell id="RdgzW_rtt1vIjWclTSuY-153" value="" style="endArrow=none;html=1;rounded=0;fontFamily=Helvetica;fontSize=12;fontColor=default;" parent="RdgzW_rtt1vIjWclTSuY-146" edge="1">
          <mxGeometry width="50" height="50" relative="1" as="geometry">
            <mxPoint x="33.333333333333336" y="75" as="sourcePoint" />
            <mxPoint y="93.75000000000001" as="targetPoint" />
          </mxGeometry>
        </mxCell>
        <mxCell id="RdgzW_rtt1vIjWclTSuY-155" value="ALU" style="text;html=1;align=center;verticalAlign=middle;resizable=0;points=[];autosize=1;strokeColor=none;fillColor=none;fontSize=12;fontFamily=Helvetica;fontColor=default;allowArrows=0;connectable=0;" parent="RdgzW_rtt1vIjWclTSuY-146" vertex="1">
          <mxGeometry x="30" y="61.00090909090909" width="42" height="28" as="geometry" />
        </mxCell>
        <mxCell id="RdgzW_rtt1vIjWclTSuY-180" value="result" style="text;html=1;align=center;verticalAlign=middle;resizable=0;points=[];autosize=1;strokeColor=none;fillColor=none;fontSize=12;fontFamily=Helvetica;fontColor=default;allowArrows=0;connectable=0;" parent="RdgzW_rtt1vIjWclTSuY-146" vertex="1">
          <mxGeometry x="58" y="82" width="48" height="28" as="geometry" />
        </mxCell>
        <mxCell id="RdgzW_rtt1vIjWclTSuY-181" value="zero" style="text;html=1;align=center;verticalAlign=middle;resizable=0;points=[];autosize=1;strokeColor=none;fillColor=none;fontSize=12;fontFamily=Helvetica;fontColor=default;allowArrows=0;connectable=0;" parent="RdgzW_rtt1vIjWclTSuY-146" vertex="1">
          <mxGeometry x="64" y="50" width="42" height="28" as="geometry" />
        </mxCell>
        <mxCell id="RdgzW_rtt1vIjWclTSuY-156" value="0&lt;br&gt;&lt;br&gt;1&lt;br&gt;&lt;br&gt;2&lt;br&gt;&lt;br&gt;3" style="rounded=1;whiteSpace=wrap;html=1;strokeColor=default;fontFamily=Helvetica;fontSize=12;fontColor=default;fillColor=default;arcSize=50;" parent="1" vertex="1">
          <mxGeometry x="952" y="480" width="26" height="102.5" as="geometry" />
        </mxCell>
        <mxCell id="RdgzW_rtt1vIjWclTSuY-158" value="" style="endArrow=classic;html=1;rounded=0;fontFamily=Helvetica;fontSize=12;fontColor=default;entryX=0.069;entryY=0.101;entryDx=0;entryDy=0;entryPerimeter=0;" parent="1" target="RdgzW_rtt1vIjWclTSuY-156" edge="1">
          <mxGeometry width="50" height="50" relative="1" as="geometry">
            <mxPoint x="814" y="490" as="sourcePoint" />
            <mxPoint x="902" y="504" as="targetPoint" />
          </mxGeometry>
        </mxCell>
        <mxCell id="bkDX0ZASANKWbIawWrTS-12" value="0" style="edgeLabel;html=1;align=center;verticalAlign=middle;resizable=0;points=[];" parent="RdgzW_rtt1vIjWclTSuY-158" vertex="1" connectable="0">
          <mxGeometry x="-0.2991" relative="1" as="geometry">
            <mxPoint as="offset" />
          </mxGeometry>
        </mxCell>
        <mxCell id="RdgzW_rtt1vIjWclTSuY-159" value="0&lt;br&gt;&lt;br&gt;1&lt;br&gt;&lt;br&gt;2&lt;br&gt;&lt;br&gt;3" style="rounded=1;whiteSpace=wrap;html=1;strokeColor=default;fontFamily=Helvetica;fontSize=12;fontColor=default;fillColor=default;arcSize=50;" parent="1" vertex="1">
          <mxGeometry x="892" y="578.75" width="26" height="102.5" as="geometry" />
        </mxCell>
        <mxCell id="RdgzW_rtt1vIjWclTSuY-160" value="" style="endArrow=classic;html=1;rounded=0;fontFamily=Helvetica;fontSize=12;fontColor=default;entryX=0.033;entryY=0.068;entryDx=0;entryDy=0;entryPerimeter=0;exitX=1.09;exitY=0.341;exitDx=0;exitDy=0;exitPerimeter=0;" parent="1" source="RdgzW_rtt1vIjWclTSuY-79" target="RdgzW_rtt1vIjWclTSuY-159" edge="1">
          <mxGeometry width="50" height="50" relative="1" as="geometry">
            <mxPoint x="812" y="600" as="sourcePoint" />
            <mxPoint x="896" y="556" as="targetPoint" />
          </mxGeometry>
        </mxCell>
        <mxCell id="bkDX0ZASANKWbIawWrTS-14" value="0" style="edgeLabel;html=1;align=center;verticalAlign=middle;resizable=0;points=[];" parent="RdgzW_rtt1vIjWclTSuY-160" vertex="1" connectable="0">
          <mxGeometry x="0.2536" y="-1" relative="1" as="geometry">
            <mxPoint x="10" as="offset" />
          </mxGeometry>
        </mxCell>
        <mxCell id="RdgzW_rtt1vIjWclTSuY-161" value="0&lt;br&gt;&lt;br&gt;1" style="rounded=1;whiteSpace=wrap;html=1;strokeColor=default;fontFamily=Helvetica;fontSize=12;fontColor=default;fillColor=default;direction=south;arcSize=50;" parent="1" vertex="1">
          <mxGeometry x="954" y="614" width="22" height="66" as="geometry" />
        </mxCell>
        <mxCell id="RdgzW_rtt1vIjWclTSuY-162" value="" style="endArrow=classic;html=1;rounded=0;fontFamily=Helvetica;fontSize=12;fontColor=default;entryX=0.276;entryY=1.035;entryDx=0;entryDy=0;entryPerimeter=0;exitX=1.013;exitY=0.525;exitDx=0;exitDy=0;exitPerimeter=0;" parent="1" source="RdgzW_rtt1vIjWclTSuY-159" target="RdgzW_rtt1vIjWclTSuY-161" edge="1">
          <mxGeometry width="50" height="50" relative="1" as="geometry">
            <mxPoint x="906" y="630" as="sourcePoint" />
            <mxPoint x="956" y="580" as="targetPoint" />
          </mxGeometry>
        </mxCell>
        <mxCell id="bkDX0ZASANKWbIawWrTS-73" value="x" style="edgeLabel;html=1;align=center;verticalAlign=middle;resizable=0;points=[];" parent="RdgzW_rtt1vIjWclTSuY-162" vertex="1" connectable="0">
          <mxGeometry x="-0.5574" y="1" relative="1" as="geometry">
            <mxPoint x="2" as="offset" />
          </mxGeometry>
        </mxCell>
        <mxCell id="RdgzW_rtt1vIjWclTSuY-163" value="" style="endArrow=classic;html=1;rounded=0;fontFamily=Helvetica;fontSize=12;fontColor=default;entryX=0.759;entryY=1.02;entryDx=0;entryDy=0;entryPerimeter=0;fillColor=#f8cecc;strokeColor=#b85450;" parent="1" target="RdgzW_rtt1vIjWclTSuY-161" edge="1">
          <mxGeometry width="50" height="50" relative="1" as="geometry">
            <mxPoint x="820" y="728" as="sourcePoint" />
            <mxPoint x="924" y="710" as="targetPoint" />
            <Array as="points">
              <mxPoint x="932" y="728" />
              <mxPoint x="932" y="664" />
            </Array>
          </mxGeometry>
        </mxCell>
        <mxCell id="bkDX0ZASANKWbIawWrTS-17" value="x" style="edgeLabel;html=1;align=center;verticalAlign=middle;resizable=0;points=[];" parent="RdgzW_rtt1vIjWclTSuY-163" vertex="1" connectable="0">
          <mxGeometry x="-0.5295" relative="1" as="geometry">
            <mxPoint x="35" y="2" as="offset" />
          </mxGeometry>
        </mxCell>
        <mxCell id="RdgzW_rtt1vIjWclTSuY-164" value="" style="endArrow=classic;html=1;rounded=0;fontFamily=Helvetica;fontSize=12;fontColor=default;exitX=0.516;exitY=-0.008;exitDx=0;exitDy=0;exitPerimeter=0;" parent="1" source="RdgzW_rtt1vIjWclTSuY-161" edge="1">
          <mxGeometry width="50" height="50" relative="1" as="geometry">
            <mxPoint x="968" y="712" as="sourcePoint" />
            <mxPoint x="1016" y="648" as="targetPoint" />
          </mxGeometry>
        </mxCell>
        <mxCell id="bkDX0ZASANKWbIawWrTS-67" value="5" style="edgeLabel;html=1;align=center;verticalAlign=middle;resizable=0;points=[];" parent="RdgzW_rtt1vIjWclTSuY-164" vertex="1" connectable="0">
          <mxGeometry x="0.052" y="-3" relative="1" as="geometry">
            <mxPoint y="-4" as="offset" />
          </mxGeometry>
        </mxCell>
        <mxCell id="RdgzW_rtt1vIjWclTSuY-165" value="" style="endArrow=classic;html=1;rounded=0;fontFamily=Helvetica;fontSize=12;fontColor=default;exitX=1.002;exitY=0.484;exitDx=0;exitDy=0;exitPerimeter=0;" parent="1" source="RdgzW_rtt1vIjWclTSuY-156" edge="1">
          <mxGeometry width="50" height="50" relative="1" as="geometry">
            <mxPoint x="1004" y="528" as="sourcePoint" />
            <mxPoint x="1016" y="552" as="targetPoint" />
            <Array as="points">
              <mxPoint x="998" y="530" />
              <mxPoint x="998" y="552" />
            </Array>
          </mxGeometry>
        </mxCell>
        <mxCell id="bkDX0ZASANKWbIawWrTS-30" value="0" style="edgeLabel;html=1;align=center;verticalAlign=middle;resizable=0;points=[];" parent="RdgzW_rtt1vIjWclTSuY-165" vertex="1" connectable="0">
          <mxGeometry x="0.1834" relative="1" as="geometry">
            <mxPoint as="offset" />
          </mxGeometry>
        </mxCell>
        <mxCell id="RdgzW_rtt1vIjWclTSuY-166" value="" style="rounded=0;whiteSpace=wrap;html=1;strokeColor=default;fontFamily=Helvetica;fontSize=12;fontColor=default;fillColor=default;" parent="1" vertex="1">
          <mxGeometry x="1152" y="358" width="16" height="588" as="geometry" />
        </mxCell>
        <mxCell id="RdgzW_rtt1vIjWclTSuY-168" value="2" style="endArrow=classic;html=1;rounded=0;fontFamily=Helvetica;fontSize=12;fontColor=default;entryX=0.029;entryY=0.851;entryDx=0;entryDy=0;entryPerimeter=0;" parent="1" target="RdgzW_rtt1vIjWclTSuY-79" edge="1">
          <mxGeometry width="50" height="50" relative="1" as="geometry">
            <mxPoint x="580" y="848" as="sourcePoint" />
            <mxPoint x="792" y="896" as="targetPoint" />
            <Array as="points">
              <mxPoint x="580" y="888" />
            </Array>
          </mxGeometry>
        </mxCell>
        <mxCell id="RdgzW_rtt1vIjWclTSuY-177" value="rs1" style="edgeLabel;html=1;align=center;verticalAlign=middle;resizable=0;points=[];fontSize=12;fontFamily=Helvetica;fontColor=default;" parent="RdgzW_rtt1vIjWclTSuY-168" vertex="1" connectable="0">
          <mxGeometry x="-0.034" relative="1" as="geometry">
            <mxPoint as="offset" />
          </mxGeometry>
        </mxCell>
        <mxCell id="bkDX0ZASANKWbIawWrTS-8" value="1" style="edgeLabel;html=1;align=center;verticalAlign=middle;resizable=0;points=[];" parent="RdgzW_rtt1vIjWclTSuY-168" vertex="1" connectable="0">
          <mxGeometry x="0.5441" y="3" relative="1" as="geometry">
            <mxPoint as="offset" />
          </mxGeometry>
        </mxCell>
        <mxCell id="RdgzW_rtt1vIjWclTSuY-170" value="" style="endArrow=classic;html=1;rounded=0;fontFamily=Helvetica;fontSize=12;fontColor=default;" parent="1" edge="1">
          <mxGeometry width="50" height="50" relative="1" as="geometry">
            <mxPoint x="580" y="888" as="sourcePoint" />
            <mxPoint x="792" y="928" as="targetPoint" />
            <Array as="points">
              <mxPoint x="580" y="928" />
            </Array>
          </mxGeometry>
        </mxCell>
        <mxCell id="RdgzW_rtt1vIjWclTSuY-178" value="rs2" style="edgeLabel;html=1;align=center;verticalAlign=middle;resizable=0;points=[];fontSize=12;fontFamily=Helvetica;fontColor=default;" parent="RdgzW_rtt1vIjWclTSuY-170" vertex="1" connectable="0">
          <mxGeometry x="-0.0952" y="1" relative="1" as="geometry">
            <mxPoint x="6" y="1" as="offset" />
          </mxGeometry>
        </mxCell>
        <mxCell id="bkDX0ZASANKWbIawWrTS-9" value="1" style="edgeLabel;html=1;align=center;verticalAlign=middle;resizable=0;points=[];" parent="RdgzW_rtt1vIjWclTSuY-170" vertex="1" connectable="0">
          <mxGeometry x="0.5344" y="2" relative="1" as="geometry">
            <mxPoint as="offset" />
          </mxGeometry>
        </mxCell>
        <mxCell id="RdgzW_rtt1vIjWclTSuY-171" value="" style="endArrow=none;html=1;rounded=0;fontFamily=Helvetica;fontSize=12;fontColor=default;" parent="1" edge="1">
          <mxGeometry width="50" height="50" relative="1" as="geometry">
            <mxPoint x="683" y="880" as="sourcePoint" />
            <mxPoint x="689" y="894" as="targetPoint" />
          </mxGeometry>
        </mxCell>
        <mxCell id="RdgzW_rtt1vIjWclTSuY-172" value="&lt;font style=&quot;font-size: 8px;&quot;&gt;5&lt;/font&gt;" style="text;html=1;align=center;verticalAlign=middle;resizable=0;points=[];autosize=1;strokeColor=none;fillColor=none;fontSize=8;fontFamily=Helvetica;fontColor=default;allowArrows=0;connectable=0;" parent="1" vertex="1">
          <mxGeometry x="679" y="868" width="24" height="24" as="geometry" />
        </mxCell>
        <mxCell id="RdgzW_rtt1vIjWclTSuY-173" value="&lt;font style=&quot;font-size: 8px;&quot;&gt;[19:15]&lt;/font&gt;" style="text;html=1;align=center;verticalAlign=middle;resizable=0;points=[];autosize=1;strokeColor=none;fillColor=none;fontSize=8;fontFamily=Helvetica;fontColor=default;allowArrows=0;connectable=0;" parent="1" vertex="1">
          <mxGeometry x="665" y="886" width="44" height="24" as="geometry" />
        </mxCell>
        <mxCell id="RdgzW_rtt1vIjWclTSuY-174" value="" style="endArrow=none;html=1;rounded=0;fontFamily=Helvetica;fontSize=12;fontColor=default;" parent="1" edge="1">
          <mxGeometry width="50" height="50" relative="1" as="geometry">
            <mxPoint x="680" y="920" as="sourcePoint" />
            <mxPoint x="686" y="934" as="targetPoint" />
          </mxGeometry>
        </mxCell>
        <mxCell id="RdgzW_rtt1vIjWclTSuY-175" value="&lt;font style=&quot;font-size: 8px;&quot;&gt;5&lt;/font&gt;" style="text;html=1;align=center;verticalAlign=middle;resizable=0;points=[];autosize=1;strokeColor=none;fillColor=none;fontSize=12;fontFamily=Helvetica;fontColor=default;allowArrows=0;connectable=0;" parent="1" vertex="1">
          <mxGeometry x="676" y="906" width="24" height="28" as="geometry" />
        </mxCell>
        <mxCell id="RdgzW_rtt1vIjWclTSuY-176" value="&lt;font style=&quot;font-size: 8px;&quot;&gt;[24:20]&lt;/font&gt;" style="text;html=1;align=center;verticalAlign=middle;resizable=0;points=[];autosize=1;strokeColor=none;fillColor=none;fontSize=12;fontFamily=Helvetica;fontColor=default;allowArrows=0;connectable=0;" parent="1" vertex="1">
          <mxGeometry x="662" y="924" width="44" height="28" as="geometry" />
        </mxCell>
        <mxCell id="RdgzW_rtt1vIjWclTSuY-179" value="" style="endArrow=classic;html=1;rounded=0;fontFamily=Helvetica;fontSize=12;fontColor=default;entryX=0.013;entryY=0.453;entryDx=0;entryDy=0;entryPerimeter=0;" parent="1" target="RdgzW_rtt1vIjWclTSuY-166" edge="1">
          <mxGeometry width="50" height="50" relative="1" as="geometry">
            <mxPoint x="1116" y="624" as="sourcePoint" />
            <mxPoint x="1196" y="500" as="targetPoint" />
          </mxGeometry>
        </mxCell>
        <mxCell id="bkDX0ZASANKWbIawWrTS-31" value="5" style="edgeLabel;html=1;align=center;verticalAlign=middle;resizable=0;points=[];" parent="RdgzW_rtt1vIjWclTSuY-179" vertex="1" connectable="0">
          <mxGeometry x="-0.0238" y="-2" relative="1" as="geometry">
            <mxPoint as="offset" />
          </mxGeometry>
        </mxCell>
        <mxCell id="RdgzW_rtt1vIjWclTSuY-183" value="" style="endArrow=classic;html=1;rounded=0;fontFamily=Helvetica;fontSize=12;fontColor=default;entryX=0.025;entryY=0.67;entryDx=0;entryDy=0;entryPerimeter=0;" parent="1" target="RdgzW_rtt1vIjWclTSuY-166" edge="1">
          <mxGeometry width="50" height="50" relative="1" as="geometry">
            <mxPoint x="938" y="632" as="sourcePoint" />
            <mxPoint x="1050" y="724" as="targetPoint" />
            <Array as="points">
              <mxPoint x="938" y="752" />
            </Array>
          </mxGeometry>
        </mxCell>
        <mxCell id="bkDX0ZASANKWbIawWrTS-68" value="x" style="edgeLabel;html=1;align=center;verticalAlign=middle;resizable=0;points=[];" parent="RdgzW_rtt1vIjWclTSuY-183" vertex="1" connectable="0">
          <mxGeometry x="0.0336" y="-2" relative="1" as="geometry">
            <mxPoint as="offset" />
          </mxGeometry>
        </mxCell>
        <mxCell id="RdgzW_rtt1vIjWclTSuY-184" value="" style="endArrow=classic;html=1;rounded=0;fontFamily=Helvetica;fontSize=12;fontColor=default;exitX=1.016;exitY=0.783;exitDx=0;exitDy=0;exitPerimeter=0;entryX=-0.012;entryY=0.833;entryDx=0;entryDy=0;entryPerimeter=0;" parent="1" source="RdgzW_rtt1vIjWclTSuY-79" target="RdgzW_rtt1vIjWclTSuY-166" edge="1">
          <mxGeometry width="50" height="50" relative="1" as="geometry">
            <mxPoint x="834" y="844" as="sourcePoint" />
            <mxPoint x="884" y="794" as="targetPoint" />
          </mxGeometry>
        </mxCell>
        <mxCell id="bkDX0ZASANKWbIawWrTS-18" value="2" style="edgeLabel;html=1;align=center;verticalAlign=middle;resizable=0;points=[];" parent="RdgzW_rtt1vIjWclTSuY-184" vertex="1" connectable="0">
          <mxGeometry x="-0.5268" relative="1" as="geometry">
            <mxPoint as="offset" />
          </mxGeometry>
        </mxCell>
        <mxCell id="RdgzW_rtt1vIjWclTSuY-185" value="" style="endArrow=classic;html=1;rounded=0;fontFamily=Helvetica;fontSize=12;fontColor=default;exitX=0.989;exitY=0.091;exitDx=0;exitDy=0;exitPerimeter=0;entryX=0.75;entryY=1;entryDx=0;entryDy=0;" parent="1" source="RdgzW_rtt1vIjWclTSuY-166" target="RdgzW_rtt1vIjWclTSuY-12" edge="1">
          <mxGeometry width="50" height="50" relative="1" as="geometry">
            <mxPoint x="1244" y="412" as="sourcePoint" />
            <mxPoint x="26" y="372" as="targetPoint" />
            <Array as="points">
              <mxPoint x="1184" y="411" />
              <mxPoint x="1184" y="288" />
              <mxPoint x="32" y="288" />
              <mxPoint x="32" y="530" />
            </Array>
          </mxGeometry>
        </mxCell>
        <mxCell id="RdgzW_rtt1vIjWclTSuY-187" value="Data&lt;br&gt;Memory" style="rounded=0;whiteSpace=wrap;html=1;strokeColor=default;fontFamily=Helvetica;fontSize=12;fontColor=default;fillColor=default;" parent="1" vertex="1">
          <mxGeometry x="1266" y="594" width="124" height="128" as="geometry" />
        </mxCell>
        <mxCell id="RdgzW_rtt1vIjWclTSuY-188" value="" style="endArrow=classic;html=1;rounded=0;fontFamily=Helvetica;fontSize=12;fontColor=default;entryX=-0.054;entryY=0.636;entryDx=0;entryDy=0;entryPerimeter=0;fillColor=#d5e8d4;strokeColor=#82b366;" parent="1" target="RdgzW_rtt1vIjWclTSuY-156" edge="1">
          <mxGeometry width="50" height="50" relative="1" as="geometry">
            <mxPoint x="1168" y="624" as="sourcePoint" />
            <mxPoint x="938" y="536" as="targetPoint" />
            <Array as="points">
              <mxPoint x="1184" y="624" />
              <mxPoint x="1184" y="1002" />
              <mxPoint x="832" y="1002" />
              <mxPoint x="832" y="545" />
            </Array>
          </mxGeometry>
        </mxCell>
        <mxCell id="bkDX0ZASANKWbIawWrTS-13" value="5" style="edgeLabel;html=1;align=center;verticalAlign=middle;resizable=0;points=[];" parent="RdgzW_rtt1vIjWclTSuY-188" vertex="1" connectable="0">
          <mxGeometry x="0.8987" y="2" relative="1" as="geometry">
            <mxPoint as="offset" />
          </mxGeometry>
        </mxCell>
        <mxCell id="RdgzW_rtt1vIjWclTSuY-189" value="" style="endArrow=classic;html=1;rounded=0;fontFamily=Helvetica;fontSize=12;fontColor=default;entryX=-0.012;entryY=0.646;entryDx=0;entryDy=0;entryPerimeter=0;fillColor=#d5e8d4;strokeColor=#82b366;" parent="1" target="RdgzW_rtt1vIjWclTSuY-159" edge="1">
          <mxGeometry width="50" height="50" relative="1" as="geometry">
            <mxPoint x="832" y="645" as="sourcePoint" />
            <mxPoint x="890" y="626" as="targetPoint" />
          </mxGeometry>
        </mxCell>
        <mxCell id="bkDX0ZASANKWbIawWrTS-15" value="5" style="edgeLabel;html=1;align=center;verticalAlign=middle;resizable=0;points=[];" parent="RdgzW_rtt1vIjWclTSuY-189" vertex="1" connectable="0">
          <mxGeometry x="-0.1762" y="-2" relative="1" as="geometry">
            <mxPoint x="13" y="-3" as="offset" />
          </mxGeometry>
        </mxCell>
        <mxCell id="RdgzW_rtt1vIjWclTSuY-190" value="" style="endArrow=classic;html=1;rounded=0;fontFamily=Helvetica;fontSize=12;fontColor=default;entryX=-0.002;entryY=0.236;entryDx=0;entryDy=0;entryPerimeter=0;fillColor=#d5e8d4;strokeColor=#82b366;" parent="1" target="RdgzW_rtt1vIjWclTSuY-187" edge="1">
          <mxGeometry width="50" height="50" relative="1" as="geometry">
            <mxPoint x="1184" y="624" as="sourcePoint" />
            <mxPoint x="1244" y="580" as="targetPoint" />
          </mxGeometry>
        </mxCell>
        <mxCell id="bkDX0ZASANKWbIawWrTS-19" value="5" style="edgeLabel;html=1;align=center;verticalAlign=middle;resizable=0;points=[];" parent="RdgzW_rtt1vIjWclTSuY-190" vertex="1" connectable="0">
          <mxGeometry x="-0.5026" y="-1" relative="1" as="geometry">
            <mxPoint as="offset" />
          </mxGeometry>
        </mxCell>
        <mxCell id="RdgzW_rtt1vIjWclTSuY-192" value="address" style="text;html=1;align=center;verticalAlign=middle;resizable=0;points=[];autosize=1;strokeColor=none;fillColor=none;fontSize=12;fontFamily=Helvetica;fontColor=default;allowArrows=0;connectable=0;" parent="1" vertex="1">
          <mxGeometry x="1262" y="611" width="62" height="28" as="geometry" />
        </mxCell>
        <mxCell id="RdgzW_rtt1vIjWclTSuY-193" value="" style="endArrow=classic;html=1;rounded=0;fontFamily=Helvetica;fontSize=12;fontColor=default;exitX=1;exitY=0.669;exitDx=0;exitDy=0;exitPerimeter=0;" parent="1" source="RdgzW_rtt1vIjWclTSuY-166" edge="1">
          <mxGeometry width="50" height="50" relative="1" as="geometry">
            <mxPoint x="1182" y="774" as="sourcePoint" />
            <mxPoint x="1266" y="712" as="targetPoint" />
            <Array as="points">
              <mxPoint x="1192" y="752" />
              <mxPoint x="1192" y="712" />
            </Array>
          </mxGeometry>
        </mxCell>
        <mxCell id="bkDX0ZASANKWbIawWrTS-20" value="x" style="edgeLabel;html=1;align=center;verticalAlign=middle;resizable=0;points=[];" parent="RdgzW_rtt1vIjWclTSuY-193" vertex="1" connectable="0">
          <mxGeometry x="0.674" relative="1" as="geometry">
            <mxPoint as="offset" />
          </mxGeometry>
        </mxCell>
        <mxCell id="RdgzW_rtt1vIjWclTSuY-194" value="data" style="text;html=1;align=center;verticalAlign=middle;resizable=0;points=[];autosize=1;strokeColor=none;fillColor=none;fontSize=12;fontFamily=Helvetica;fontColor=default;allowArrows=0;connectable=0;" parent="1" vertex="1">
          <mxGeometry x="1262" y="699" width="42" height="28" as="geometry" />
        </mxCell>
        <mxCell id="RdgzW_rtt1vIjWclTSuY-195" value="&lt;font style=&quot;font-size: 10px;&quot;&gt;Branch&lt;br&gt;Controller&lt;/font&gt;" style="whiteSpace=wrap;html=1;strokeColor=default;fontFamily=Helvetica;fontSize=12;fontColor=default;fillColor=default;" parent="1" vertex="1">
          <mxGeometry x="1520" y="42" width="70" height="96" as="geometry" />
        </mxCell>
        <mxCell id="RdgzW_rtt1vIjWclTSuY-197" value="" style="rounded=0;whiteSpace=wrap;html=1;strokeColor=default;fontFamily=Helvetica;fontSize=12;fontColor=default;fillColor=default;" parent="1" vertex="1">
          <mxGeometry x="1416" y="410" width="18" height="550" as="geometry" />
        </mxCell>
        <mxCell id="RdgzW_rtt1vIjWclTSuY-198" value="" style="endArrow=classic;html=1;rounded=0;fontFamily=Helvetica;fontSize=12;fontColor=default;exitX=1;exitY=0.75;exitDx=0;exitDy=0;" parent="1" source="RdgzW_rtt1vIjWclTSuY-187" edge="1">
          <mxGeometry width="50" height="50" relative="1" as="geometry">
            <mxPoint x="1392" y="632" as="sourcePoint" />
            <mxPoint x="1416" y="690" as="targetPoint" />
          </mxGeometry>
        </mxCell>
        <mxCell id="bkDX0ZASANKWbIawWrTS-74" value="x" style="edgeLabel;html=1;align=center;verticalAlign=middle;resizable=0;points=[];" parent="RdgzW_rtt1vIjWclTSuY-198" vertex="1" connectable="0">
          <mxGeometry x="-0.1231" y="-1" relative="1" as="geometry">
            <mxPoint as="offset" />
          </mxGeometry>
        </mxCell>
        <mxCell id="RdgzW_rtt1vIjWclTSuY-199" value="read data" style="text;html=1;align=center;verticalAlign=middle;resizable=0;points=[];autosize=1;strokeColor=none;fillColor=none;fontSize=12;fontFamily=Helvetica;fontColor=default;allowArrows=0;connectable=0;" parent="1" vertex="1">
          <mxGeometry x="1326" y="676" width="70" height="28" as="geometry" />
        </mxCell>
        <mxCell id="RdgzW_rtt1vIjWclTSuY-200" value="" style="endArrow=classic;html=1;rounded=0;fontFamily=Helvetica;fontSize=12;fontColor=default;fillColor=#d5e8d4;strokeColor=#82b366;" parent="1" edge="1">
          <mxGeometry width="50" height="50" relative="1" as="geometry">
            <mxPoint x="1184" y="770" as="sourcePoint" />
            <mxPoint x="1414" y="770" as="targetPoint" />
            <Array as="points">
              <mxPoint x="1216" y="770" />
            </Array>
          </mxGeometry>
        </mxCell>
        <mxCell id="RdgzW_rtt1vIjWclTSuY-201" value="1&lt;br&gt;&lt;br&gt;0" style="rounded=1;whiteSpace=wrap;html=1;strokeColor=default;fontFamily=Helvetica;fontSize=12;fontColor=default;fillColor=default;direction=south;arcSize=50;" parent="1" vertex="1">
          <mxGeometry x="1472" y="693.5" width="22" height="66" as="geometry" />
        </mxCell>
        <mxCell id="RdgzW_rtt1vIjWclTSuY-202" value="" style="endArrow=classic;html=1;rounded=0;fontFamily=Helvetica;fontSize=12;fontColor=default;entryX=0.311;entryY=1.01;entryDx=0;entryDy=0;entryPerimeter=0;" parent="1" target="RdgzW_rtt1vIjWclTSuY-201" edge="1">
          <mxGeometry width="50" height="50" relative="1" as="geometry">
            <mxPoint x="1434" y="690" as="sourcePoint" />
            <mxPoint x="1502" y="658" as="targetPoint" />
            <Array as="points">
              <mxPoint x="1456" y="690" />
              <mxPoint x="1456" y="714" />
            </Array>
          </mxGeometry>
        </mxCell>
        <mxCell id="bkDX0ZASANKWbIawWrTS-27" value="x" style="edgeLabel;html=1;align=center;verticalAlign=middle;resizable=0;points=[];" parent="RdgzW_rtt1vIjWclTSuY-202" vertex="1" connectable="0">
          <mxGeometry x="-0.5389" y="3" relative="1" as="geometry">
            <mxPoint as="offset" />
          </mxGeometry>
        </mxCell>
        <mxCell id="RdgzW_rtt1vIjWclTSuY-203" value="" style="endArrow=classic;html=1;rounded=0;fontFamily=Helvetica;fontSize=12;fontColor=default;exitX=1.012;exitY=0.656;exitDx=0;exitDy=0;exitPerimeter=0;entryX=0.75;entryY=1;entryDx=0;entryDy=0;" parent="1" source="RdgzW_rtt1vIjWclTSuY-197" target="RdgzW_rtt1vIjWclTSuY-201" edge="1">
          <mxGeometry width="50" height="50" relative="1" as="geometry">
            <mxPoint x="1452" y="796" as="sourcePoint" />
            <mxPoint x="1502" y="746" as="targetPoint" />
            <Array as="points">
              <mxPoint x="1456" y="771" />
              <mxPoint x="1456" y="743" />
            </Array>
          </mxGeometry>
        </mxCell>
        <mxCell id="bkDX0ZASANKWbIawWrTS-26" value="x" style="edgeLabel;html=1;align=center;verticalAlign=middle;resizable=0;points=[];" parent="RdgzW_rtt1vIjWclTSuY-203" vertex="1" connectable="0">
          <mxGeometry x="-0.5769" y="-2" relative="1" as="geometry">
            <mxPoint as="offset" />
          </mxGeometry>
        </mxCell>
        <mxCell id="RdgzW_rtt1vIjWclTSuY-204" value="" style="endArrow=classic;html=1;rounded=0;fontFamily=Helvetica;fontSize=12;fontColor=default;entryX=-0.019;entryY=0.797;entryDx=0;entryDy=0;entryPerimeter=0;exitX=1.025;exitY=0.832;exitDx=0;exitDy=0;exitPerimeter=0;" parent="1" source="RdgzW_rtt1vIjWclTSuY-166" target="RdgzW_rtt1vIjWclTSuY-197" edge="1">
          <mxGeometry width="50" height="50" relative="1" as="geometry">
            <mxPoint x="1169" y="848" as="sourcePoint" />
            <mxPoint x="1306" y="816" as="targetPoint" />
          </mxGeometry>
        </mxCell>
        <mxCell id="bkDX0ZASANKWbIawWrTS-21" value="1" style="edgeLabel;html=1;align=center;verticalAlign=middle;resizable=0;points=[];" parent="RdgzW_rtt1vIjWclTSuY-204" vertex="1" connectable="0">
          <mxGeometry x="-0.4803" y="1" relative="1" as="geometry">
            <mxPoint as="offset" />
          </mxGeometry>
        </mxCell>
        <mxCell id="FOJua6uj2jGWdnx8fCcR-3" value="rd" style="edgeLabel;html=1;align=center;verticalAlign=middle;resizable=0;points=[];" parent="RdgzW_rtt1vIjWclTSuY-204" vertex="1" connectable="0">
          <mxGeometry x="0.1616" y="-2" relative="1" as="geometry">
            <mxPoint as="offset" />
          </mxGeometry>
        </mxCell>
        <mxCell id="RdgzW_rtt1vIjWclTSuY-205" value="" style="endArrow=classic;html=1;rounded=0;fontFamily=Helvetica;fontSize=12;fontColor=default;exitX=1.001;exitY=0.8;exitDx=0;exitDy=0;exitPerimeter=0;" parent="1" source="RdgzW_rtt1vIjWclTSuY-197" edge="1">
          <mxGeometry width="50" height="50" relative="1" as="geometry">
            <mxPoint x="1442" y="860" as="sourcePoint" />
            <mxPoint x="644" y="546" as="targetPoint" />
            <Array as="points">
              <mxPoint x="1448" y="850" />
              <mxPoint x="1448" y="986" />
              <mxPoint x="592" y="986" />
              <mxPoint x="592" y="546" />
            </Array>
          </mxGeometry>
        </mxCell>
        <mxCell id="bkDX0ZASANKWbIawWrTS-28" value="x" style="edgeLabel;html=1;align=center;verticalAlign=middle;resizable=0;points=[];" parent="RdgzW_rtt1vIjWclTSuY-205" vertex="1" connectable="0">
          <mxGeometry x="-0.9594" y="2" relative="1" as="geometry">
            <mxPoint as="offset" />
          </mxGeometry>
        </mxCell>
        <mxCell id="FOJua6uj2jGWdnx8fCcR-18" value="x" style="edgeLabel;html=1;align=center;verticalAlign=middle;resizable=0;points=[];" parent="RdgzW_rtt1vIjWclTSuY-205" vertex="1" connectable="0">
          <mxGeometry x="0.9628" y="1" relative="1" as="geometry">
            <mxPoint as="offset" />
          </mxGeometry>
        </mxCell>
        <mxCell id="RdgzW_rtt1vIjWclTSuY-206" value="" style="endArrow=classic;html=1;rounded=0;fontFamily=Helvetica;fontSize=12;fontColor=default;" parent="1" edge="1">
          <mxGeometry width="50" height="50" relative="1" as="geometry">
            <mxPoint x="1494" y="726" as="sourcePoint" />
            <mxPoint x="644" y="578" as="targetPoint" />
            <Array as="points">
              <mxPoint x="1504" y="726" />
              <mxPoint x="1504" y="1010" />
              <mxPoint x="608" y="1010" />
              <mxPoint x="608" y="578" />
            </Array>
          </mxGeometry>
        </mxCell>
        <mxCell id="bkDX0ZASANKWbIawWrTS-66" value="x" style="edgeLabel;html=1;align=center;verticalAlign=middle;resizable=0;points=[];" parent="RdgzW_rtt1vIjWclTSuY-206" vertex="1" connectable="0">
          <mxGeometry x="-0.9001" y="-1" relative="1" as="geometry">
            <mxPoint as="offset" />
          </mxGeometry>
        </mxCell>
        <mxCell id="bkDX0ZASANKWbIawWrTS-115" value="x" style="edgeLabel;html=1;align=center;verticalAlign=middle;resizable=0;points=[];" parent="RdgzW_rtt1vIjWclTSuY-206" vertex="1" connectable="0">
          <mxGeometry x="0.9745" y="-2" relative="1" as="geometry">
            <mxPoint as="offset" />
          </mxGeometry>
        </mxCell>
        <mxCell id="RdgzW_rtt1vIjWclTSuY-207" value="Rd" style="text;html=1;align=center;verticalAlign=middle;resizable=0;points=[];autosize=1;strokeColor=none;fillColor=none;fontSize=12;fontFamily=Helvetica;fontColor=default;allowArrows=0;connectable=0;" parent="1" vertex="1">
          <mxGeometry x="642" y="533" width="34" height="28" as="geometry" />
        </mxCell>
        <mxCell id="RdgzW_rtt1vIjWclTSuY-208" value="Rd_data" style="text;html=1;align=center;verticalAlign=middle;resizable=0;points=[];autosize=1;strokeColor=none;fillColor=none;fontSize=12;fontFamily=Helvetica;fontColor=default;allowArrows=0;connectable=0;" parent="1" vertex="1">
          <mxGeometry x="642" y="566" width="64" height="28" as="geometry" />
        </mxCell>
        <mxCell id="RdgzW_rtt1vIjWclTSuY-209" value="zero" style="text;html=1;align=center;verticalAlign=middle;resizable=0;points=[];autosize=1;strokeColor=none;fillColor=none;fontSize=12;fontFamily=Helvetica;fontColor=default;allowArrows=0;connectable=0;" parent="1" vertex="1">
          <mxGeometry x="1524" y="106" width="42" height="28" as="geometry" />
        </mxCell>
        <mxCell id="RdgzW_rtt1vIjWclTSuY-211" value="Control&amp;nbsp;&lt;br&gt;Unit" style="rounded=0;whiteSpace=wrap;html=1;strokeColor=default;fontFamily=Helvetica;fontSize=12;fontColor=default;fillColor=default;" parent="1" vertex="1">
          <mxGeometry x="1766" y="-74" width="64" height="160" as="geometry" />
        </mxCell>
        <mxCell id="RdgzW_rtt1vIjWclTSuY-217" value="ALU&amp;nbsp;&lt;br&gt;Control" style="ellipse;whiteSpace=wrap;html=1;strokeColor=default;fontFamily=Helvetica;fontSize=12;fontColor=default;fillColor=default;" parent="1" vertex="1">
          <mxGeometry x="1652" y="100" width="78" height="73" as="geometry" />
        </mxCell>
        <mxCell id="RdgzW_rtt1vIjWclTSuY-219" value="Forwarding&lt;br&gt;Unit" style="rounded=0;whiteSpace=wrap;html=1;strokeColor=default;fontFamily=Helvetica;fontSize=12;fontColor=default;fillColor=default;" parent="1" vertex="1">
          <mxGeometry x="996" y="1042" width="120" height="60" as="geometry" />
        </mxCell>
        <mxCell id="bkDX0ZASANKWbIawWrTS-32" value="" style="endArrow=classic;html=1;rounded=0;entryX=-0.023;entryY=0.351;entryDx=0;entryDy=0;entryPerimeter=0;" parent="1" target="RdgzW_rtt1vIjWclTSuY-156" edge="1">
          <mxGeometry width="50" height="50" relative="1" as="geometry">
            <mxPoint x="838" y="1010" as="sourcePoint" />
            <mxPoint x="932" y="526" as="targetPoint" />
            <Array as="points">
              <mxPoint x="840" y="516" />
            </Array>
          </mxGeometry>
        </mxCell>
        <mxCell id="FOJua6uj2jGWdnx8fCcR-91" value="x" style="edgeLabel;html=1;align=center;verticalAlign=middle;resizable=0;points=[];" parent="bkDX0ZASANKWbIawWrTS-32" vertex="1" connectable="0">
          <mxGeometry x="0.718" relative="1" as="geometry">
            <mxPoint as="offset" />
          </mxGeometry>
        </mxCell>
        <mxCell id="bkDX0ZASANKWbIawWrTS-58" value="" style="endArrow=classic;html=1;rounded=0;exitX=1;exitY=0.855;exitDx=0;exitDy=0;exitPerimeter=0;entryX=0;entryY=0.905;entryDx=0;entryDy=0;entryPerimeter=0;" parent="1" source="RdgzW_rtt1vIjWclTSuY-79" target="RdgzW_rtt1vIjWclTSuY-166" edge="1">
          <mxGeometry width="50" height="50" relative="1" as="geometry">
            <mxPoint x="868" y="900" as="sourcePoint" />
            <mxPoint x="918" y="850" as="targetPoint" />
          </mxGeometry>
        </mxCell>
        <mxCell id="bkDX0ZASANKWbIawWrTS-62" value="1" style="edgeLabel;html=1;align=center;verticalAlign=middle;resizable=0;points=[];" parent="bkDX0ZASANKWbIawWrTS-58" vertex="1" connectable="0">
          <mxGeometry x="-0.4551" y="-1" relative="1" as="geometry">
            <mxPoint as="offset" />
          </mxGeometry>
        </mxCell>
        <mxCell id="FOJua6uj2jGWdnx8fCcR-1" value="rs1" style="edgeLabel;html=1;align=center;verticalAlign=middle;resizable=0;points=[];" parent="bkDX0ZASANKWbIawWrTS-58" vertex="1" connectable="0">
          <mxGeometry x="0.2529" y="-2" relative="1" as="geometry">
            <mxPoint as="offset" />
          </mxGeometry>
        </mxCell>
        <mxCell id="bkDX0ZASANKWbIawWrTS-59" value="" style="endArrow=classic;html=1;rounded=0;exitX=1;exitY=0.855;exitDx=0;exitDy=0;exitPerimeter=0;entryX=-0.018;entryY=0.95;entryDx=0;entryDy=0;entryPerimeter=0;" parent="1" edge="1">
          <mxGeometry width="50" height="50" relative="1" as="geometry">
            <mxPoint x="812" y="928" as="sourcePoint" />
            <mxPoint x="1152" y="928" as="targetPoint" />
          </mxGeometry>
        </mxCell>
        <mxCell id="bkDX0ZASANKWbIawWrTS-63" value="1" style="edgeLabel;html=1;align=center;verticalAlign=middle;resizable=0;points=[];" parent="bkDX0ZASANKWbIawWrTS-59" vertex="1" connectable="0">
          <mxGeometry x="-0.4427" relative="1" as="geometry">
            <mxPoint as="offset" />
          </mxGeometry>
        </mxCell>
        <mxCell id="FOJua6uj2jGWdnx8fCcR-2" value="rs2" style="edgeLabel;html=1;align=center;verticalAlign=middle;resizable=0;points=[];" parent="bkDX0ZASANKWbIawWrTS-59" vertex="1" connectable="0">
          <mxGeometry x="0.2471" y="1" relative="1" as="geometry">
            <mxPoint as="offset" />
          </mxGeometry>
        </mxCell>
        <mxCell id="bkDX0ZASANKWbIawWrTS-61" value="" style="endArrow=classic;html=1;rounded=0;exitX=1;exitY=0.855;exitDx=0;exitDy=0;exitPerimeter=0;" parent="1" edge="1">
          <mxGeometry width="50" height="50" relative="1" as="geometry">
            <mxPoint x="1168" y="928" as="sourcePoint" />
            <mxPoint x="1386" y="928" as="targetPoint" />
          </mxGeometry>
        </mxCell>
        <mxCell id="bkDX0ZASANKWbIawWrTS-65" value="x" style="edgeLabel;html=1;align=center;verticalAlign=middle;resizable=0;points=[];" parent="bkDX0ZASANKWbIawWrTS-61" vertex="1" connectable="0">
          <mxGeometry x="-0.2583" y="-1" relative="1" as="geometry">
            <mxPoint as="offset" />
          </mxGeometry>
        </mxCell>
        <mxCell id="FOJua6uj2jGWdnx8fCcR-88" value="rs2" style="edgeLabel;html=1;align=center;verticalAlign=middle;resizable=0;points=[];" parent="bkDX0ZASANKWbIawWrTS-61" vertex="1" connectable="0">
          <mxGeometry x="0.344" y="-1" relative="1" as="geometry">
            <mxPoint as="offset" />
          </mxGeometry>
        </mxCell>
        <mxCell id="bkDX0ZASANKWbIawWrTS-71" value="2" style="text;html=1;align=center;verticalAlign=middle;resizable=0;points=[];autosize=1;strokeColor=none;fillColor=none;fontSize=43;" parent="1" vertex="1">
          <mxGeometry x="1130" y="58" width="44" height="66" as="geometry" />
        </mxCell>
        <mxCell id="bkDX0ZASANKWbIawWrTS-110" value="" style="endArrow=classic;html=1;rounded=0;entryX=0.003;entryY=0.36;entryDx=0;entryDy=0;entryPerimeter=0;" parent="1" target="RdgzW_rtt1vIjWclTSuY-159" edge="1">
          <mxGeometry width="50" height="50" relative="1" as="geometry">
            <mxPoint x="840" y="616" as="sourcePoint" />
            <mxPoint x="920" y="590" as="targetPoint" />
          </mxGeometry>
        </mxCell>
        <mxCell id="bkDX0ZASANKWbIawWrTS-111" value="x" style="edgeLabel;html=1;align=center;verticalAlign=middle;resizable=0;points=[];" parent="bkDX0ZASANKWbIawWrTS-110" vertex="1" connectable="0">
          <mxGeometry x="-0.2" relative="1" as="geometry">
            <mxPoint x="13" as="offset" />
          </mxGeometry>
        </mxCell>
        <mxCell id="FOJua6uj2jGWdnx8fCcR-19" value="" style="shape=table;startSize=0;container=1;collapsible=0;childLayout=tableLayout;" parent="1" vertex="1">
          <mxGeometry x="622" y="34" width="120" height="244" as="geometry" />
        </mxCell>
        <mxCell id="aolI5gFk3EcSTFQRaghS-21" style="shape=tableRow;horizontal=0;startSize=0;swimlaneHead=0;swimlaneBody=0;strokeColor=inherit;top=0;left=0;bottom=0;right=0;collapsible=0;dropTarget=0;fillColor=none;points=[[0,0.5],[1,0.5]];portConstraint=eastwest;" vertex="1" parent="FOJua6uj2jGWdnx8fCcR-19">
          <mxGeometry width="120" height="40" as="geometry" />
        </mxCell>
        <mxCell id="aolI5gFk3EcSTFQRaghS-22" value="branch_condition" style="shape=partialRectangle;html=1;whiteSpace=wrap;connectable=0;strokeColor=inherit;overflow=hidden;fillColor=none;top=0;left=0;bottom=0;right=0;pointerEvents=1;" vertex="1" parent="aolI5gFk3EcSTFQRaghS-21">
          <mxGeometry width="60" height="40" as="geometry">
            <mxRectangle width="60" height="40" as="alternateBounds" />
          </mxGeometry>
        </mxCell>
        <mxCell id="aolI5gFk3EcSTFQRaghS-23" value="0" style="shape=partialRectangle;html=1;whiteSpace=wrap;connectable=0;strokeColor=inherit;overflow=hidden;fillColor=none;top=0;left=0;bottom=0;right=0;pointerEvents=1;" vertex="1" parent="aolI5gFk3EcSTFQRaghS-21">
          <mxGeometry x="60" width="60" height="40" as="geometry">
            <mxRectangle width="60" height="40" as="alternateBounds" />
          </mxGeometry>
        </mxCell>
        <mxCell id="FOJua6uj2jGWdnx8fCcR-20" value="" style="shape=tableRow;horizontal=0;startSize=0;swimlaneHead=0;swimlaneBody=0;strokeColor=inherit;top=0;left=0;bottom=0;right=0;collapsible=0;dropTarget=0;fillColor=none;points=[[0,0.5],[1,0.5]];portConstraint=eastwest;" parent="FOJua6uj2jGWdnx8fCcR-19" vertex="1">
          <mxGeometry y="40" width="120" height="40" as="geometry" />
        </mxCell>
        <mxCell id="FOJua6uj2jGWdnx8fCcR-21" value="alu_src" style="shape=partialRectangle;html=1;whiteSpace=wrap;connectable=0;strokeColor=inherit;overflow=hidden;fillColor=none;top=0;left=0;bottom=0;right=0;pointerEvents=1;" parent="FOJua6uj2jGWdnx8fCcR-20" vertex="1">
          <mxGeometry width="60" height="40" as="geometry">
            <mxRectangle width="60" height="40" as="alternateBounds" />
          </mxGeometry>
        </mxCell>
        <mxCell id="FOJua6uj2jGWdnx8fCcR-22" value="0" style="shape=partialRectangle;html=1;whiteSpace=wrap;connectable=0;strokeColor=inherit;overflow=hidden;fillColor=none;top=0;left=0;bottom=0;right=0;pointerEvents=1;" parent="FOJua6uj2jGWdnx8fCcR-20" vertex="1">
          <mxGeometry x="60" width="60" height="40" as="geometry">
            <mxRectangle width="60" height="40" as="alternateBounds" />
          </mxGeometry>
        </mxCell>
        <mxCell id="FOJua6uj2jGWdnx8fCcR-23" value="" style="shape=tableRow;horizontal=0;startSize=0;swimlaneHead=0;swimlaneBody=0;strokeColor=inherit;top=0;left=0;bottom=0;right=0;collapsible=0;dropTarget=0;fillColor=none;points=[[0,0.5],[1,0.5]];portConstraint=eastwest;" parent="FOJua6uj2jGWdnx8fCcR-19" vertex="1">
          <mxGeometry y="80" width="120" height="40" as="geometry" />
        </mxCell>
        <mxCell id="FOJua6uj2jGWdnx8fCcR-24" value="reg_write" style="shape=partialRectangle;html=1;whiteSpace=wrap;connectable=0;strokeColor=inherit;overflow=hidden;fillColor=none;top=0;left=0;bottom=0;right=0;pointerEvents=1;" parent="FOJua6uj2jGWdnx8fCcR-23" vertex="1">
          <mxGeometry width="60" height="40" as="geometry">
            <mxRectangle width="60" height="40" as="alternateBounds" />
          </mxGeometry>
        </mxCell>
        <mxCell id="FOJua6uj2jGWdnx8fCcR-25" value="1" style="shape=partialRectangle;html=1;whiteSpace=wrap;connectable=0;strokeColor=inherit;overflow=hidden;fillColor=none;top=0;left=0;bottom=0;right=0;pointerEvents=1;" parent="FOJua6uj2jGWdnx8fCcR-23" vertex="1">
          <mxGeometry x="60" width="60" height="40" as="geometry">
            <mxRectangle width="60" height="40" as="alternateBounds" />
          </mxGeometry>
        </mxCell>
        <mxCell id="FOJua6uj2jGWdnx8fCcR-26" value="" style="shape=tableRow;horizontal=0;startSize=0;swimlaneHead=0;swimlaneBody=0;strokeColor=inherit;top=0;left=0;bottom=0;right=0;collapsible=0;dropTarget=0;fillColor=none;points=[[0,0.5],[1,0.5]];portConstraint=eastwest;" parent="FOJua6uj2jGWdnx8fCcR-19" vertex="1">
          <mxGeometry y="120" width="120" height="40" as="geometry" />
        </mxCell>
        <mxCell id="FOJua6uj2jGWdnx8fCcR-27" value="mem_write" style="shape=partialRectangle;html=1;whiteSpace=wrap;connectable=0;strokeColor=inherit;overflow=hidden;fillColor=none;top=0;left=0;bottom=0;right=0;pointerEvents=1;" parent="FOJua6uj2jGWdnx8fCcR-26" vertex="1">
          <mxGeometry width="60" height="40" as="geometry">
            <mxRectangle width="60" height="40" as="alternateBounds" />
          </mxGeometry>
        </mxCell>
        <mxCell id="FOJua6uj2jGWdnx8fCcR-28" value="0" style="shape=partialRectangle;html=1;whiteSpace=wrap;connectable=0;strokeColor=inherit;overflow=hidden;fillColor=none;top=0;left=0;bottom=0;right=0;pointerEvents=1;" parent="FOJua6uj2jGWdnx8fCcR-26" vertex="1">
          <mxGeometry x="60" width="60" height="40" as="geometry">
            <mxRectangle width="60" height="40" as="alternateBounds" />
          </mxGeometry>
        </mxCell>
        <mxCell id="FOJua6uj2jGWdnx8fCcR-29" value="" style="shape=tableRow;horizontal=0;startSize=0;swimlaneHead=0;swimlaneBody=0;strokeColor=inherit;top=0;left=0;bottom=0;right=0;collapsible=0;dropTarget=0;fillColor=none;points=[[0,0.5],[1,0.5]];portConstraint=eastwest;" parent="FOJua6uj2jGWdnx8fCcR-19" vertex="1">
          <mxGeometry y="160" width="120" height="44" as="geometry" />
        </mxCell>
        <mxCell id="FOJua6uj2jGWdnx8fCcR-30" value="mem_read" style="shape=partialRectangle;html=1;whiteSpace=wrap;connectable=0;strokeColor=inherit;overflow=hidden;fillColor=none;top=0;left=0;bottom=0;right=0;pointerEvents=1;" parent="FOJua6uj2jGWdnx8fCcR-29" vertex="1">
          <mxGeometry width="60" height="44" as="geometry">
            <mxRectangle width="60" height="44" as="alternateBounds" />
          </mxGeometry>
        </mxCell>
        <mxCell id="FOJua6uj2jGWdnx8fCcR-31" value="0" style="shape=partialRectangle;html=1;whiteSpace=wrap;connectable=0;strokeColor=inherit;overflow=hidden;fillColor=none;top=0;left=0;bottom=0;right=0;pointerEvents=1;" parent="FOJua6uj2jGWdnx8fCcR-29" vertex="1">
          <mxGeometry x="60" width="60" height="44" as="geometry">
            <mxRectangle width="60" height="44" as="alternateBounds" />
          </mxGeometry>
        </mxCell>
        <mxCell id="FOJua6uj2jGWdnx8fCcR-32" value="" style="shape=tableRow;horizontal=0;startSize=0;swimlaneHead=0;swimlaneBody=0;strokeColor=inherit;top=0;left=0;bottom=0;right=0;collapsible=0;dropTarget=0;fillColor=none;points=[[0,0.5],[1,0.5]];portConstraint=eastwest;" parent="FOJua6uj2jGWdnx8fCcR-19" vertex="1">
          <mxGeometry y="204" width="120" height="40" as="geometry" />
        </mxCell>
        <mxCell id="FOJua6uj2jGWdnx8fCcR-33" value="memtoreg" style="shape=partialRectangle;html=1;whiteSpace=wrap;connectable=0;strokeColor=inherit;overflow=hidden;fillColor=none;top=0;left=0;bottom=0;right=0;pointerEvents=1;" parent="FOJua6uj2jGWdnx8fCcR-32" vertex="1">
          <mxGeometry width="60" height="40" as="geometry">
            <mxRectangle width="60" height="40" as="alternateBounds" />
          </mxGeometry>
        </mxCell>
        <mxCell id="FOJua6uj2jGWdnx8fCcR-34" value="0" style="shape=partialRectangle;html=1;whiteSpace=wrap;connectable=0;strokeColor=inherit;overflow=hidden;fillColor=none;top=0;left=0;bottom=0;right=0;pointerEvents=1;" parent="FOJua6uj2jGWdnx8fCcR-32" vertex="1">
          <mxGeometry x="60" width="60" height="40" as="geometry">
            <mxRectangle width="60" height="40" as="alternateBounds" />
          </mxGeometry>
        </mxCell>
        <mxCell id="FOJua6uj2jGWdnx8fCcR-35" value="" style="shape=table;startSize=0;container=1;collapsible=0;childLayout=tableLayout;" parent="1" vertex="1">
          <mxGeometry x="934" y="74" width="120" height="204" as="geometry" />
        </mxCell>
        <mxCell id="FOJua6uj2jGWdnx8fCcR-36" value="" style="shape=tableRow;horizontal=0;startSize=0;swimlaneHead=0;swimlaneBody=0;strokeColor=inherit;top=0;left=0;bottom=0;right=0;collapsible=0;dropTarget=0;fillColor=none;points=[[0,0.5],[1,0.5]];portConstraint=eastwest;" parent="FOJua6uj2jGWdnx8fCcR-35" vertex="1">
          <mxGeometry width="120" height="40" as="geometry" />
        </mxCell>
        <mxCell id="FOJua6uj2jGWdnx8fCcR-37" value="alu_src" style="shape=partialRectangle;html=1;whiteSpace=wrap;connectable=0;strokeColor=inherit;overflow=hidden;fillColor=none;top=0;left=0;bottom=0;right=0;pointerEvents=1;" parent="FOJua6uj2jGWdnx8fCcR-36" vertex="1">
          <mxGeometry width="60" height="40" as="geometry">
            <mxRectangle width="60" height="40" as="alternateBounds" />
          </mxGeometry>
        </mxCell>
        <mxCell id="FOJua6uj2jGWdnx8fCcR-38" value="0" style="shape=partialRectangle;html=1;whiteSpace=wrap;connectable=0;strokeColor=inherit;overflow=hidden;fillColor=none;top=0;left=0;bottom=0;right=0;pointerEvents=1;" parent="FOJua6uj2jGWdnx8fCcR-36" vertex="1">
          <mxGeometry x="60" width="60" height="40" as="geometry">
            <mxRectangle width="60" height="40" as="alternateBounds" />
          </mxGeometry>
        </mxCell>
        <mxCell id="FOJua6uj2jGWdnx8fCcR-39" value="" style="shape=tableRow;horizontal=0;startSize=0;swimlaneHead=0;swimlaneBody=0;strokeColor=inherit;top=0;left=0;bottom=0;right=0;collapsible=0;dropTarget=0;fillColor=none;points=[[0,0.5],[1,0.5]];portConstraint=eastwest;" parent="FOJua6uj2jGWdnx8fCcR-35" vertex="1">
          <mxGeometry y="40" width="120" height="40" as="geometry" />
        </mxCell>
        <mxCell id="FOJua6uj2jGWdnx8fCcR-40" value="reg_write" style="shape=partialRectangle;html=1;whiteSpace=wrap;connectable=0;strokeColor=inherit;overflow=hidden;fillColor=none;top=0;left=0;bottom=0;right=0;pointerEvents=1;" parent="FOJua6uj2jGWdnx8fCcR-39" vertex="1">
          <mxGeometry width="60" height="40" as="geometry">
            <mxRectangle width="60" height="40" as="alternateBounds" />
          </mxGeometry>
        </mxCell>
        <mxCell id="FOJua6uj2jGWdnx8fCcR-41" value="1" style="shape=partialRectangle;html=1;whiteSpace=wrap;connectable=0;strokeColor=inherit;overflow=hidden;fillColor=none;top=0;left=0;bottom=0;right=0;pointerEvents=1;" parent="FOJua6uj2jGWdnx8fCcR-39" vertex="1">
          <mxGeometry x="60" width="60" height="40" as="geometry">
            <mxRectangle width="60" height="40" as="alternateBounds" />
          </mxGeometry>
        </mxCell>
        <mxCell id="FOJua6uj2jGWdnx8fCcR-42" value="" style="shape=tableRow;horizontal=0;startSize=0;swimlaneHead=0;swimlaneBody=0;strokeColor=inherit;top=0;left=0;bottom=0;right=0;collapsible=0;dropTarget=0;fillColor=none;points=[[0,0.5],[1,0.5]];portConstraint=eastwest;" parent="FOJua6uj2jGWdnx8fCcR-35" vertex="1">
          <mxGeometry y="80" width="120" height="40" as="geometry" />
        </mxCell>
        <mxCell id="FOJua6uj2jGWdnx8fCcR-43" value="mem_write" style="shape=partialRectangle;html=1;whiteSpace=wrap;connectable=0;strokeColor=inherit;overflow=hidden;fillColor=none;top=0;left=0;bottom=0;right=0;pointerEvents=1;" parent="FOJua6uj2jGWdnx8fCcR-42" vertex="1">
          <mxGeometry width="60" height="40" as="geometry">
            <mxRectangle width="60" height="40" as="alternateBounds" />
          </mxGeometry>
        </mxCell>
        <mxCell id="FOJua6uj2jGWdnx8fCcR-44" value="0" style="shape=partialRectangle;html=1;whiteSpace=wrap;connectable=0;strokeColor=inherit;overflow=hidden;fillColor=none;top=0;left=0;bottom=0;right=0;pointerEvents=1;" parent="FOJua6uj2jGWdnx8fCcR-42" vertex="1">
          <mxGeometry x="60" width="60" height="40" as="geometry">
            <mxRectangle width="60" height="40" as="alternateBounds" />
          </mxGeometry>
        </mxCell>
        <mxCell id="FOJua6uj2jGWdnx8fCcR-45" value="" style="shape=tableRow;horizontal=0;startSize=0;swimlaneHead=0;swimlaneBody=0;strokeColor=inherit;top=0;left=0;bottom=0;right=0;collapsible=0;dropTarget=0;fillColor=none;points=[[0,0.5],[1,0.5]];portConstraint=eastwest;" parent="FOJua6uj2jGWdnx8fCcR-35" vertex="1">
          <mxGeometry y="120" width="120" height="44" as="geometry" />
        </mxCell>
        <mxCell id="FOJua6uj2jGWdnx8fCcR-46" value="mem_read" style="shape=partialRectangle;html=1;whiteSpace=wrap;connectable=0;strokeColor=inherit;overflow=hidden;fillColor=none;top=0;left=0;bottom=0;right=0;pointerEvents=1;" parent="FOJua6uj2jGWdnx8fCcR-45" vertex="1">
          <mxGeometry width="60" height="44" as="geometry">
            <mxRectangle width="60" height="44" as="alternateBounds" />
          </mxGeometry>
        </mxCell>
        <mxCell id="FOJua6uj2jGWdnx8fCcR-47" value="0" style="shape=partialRectangle;html=1;whiteSpace=wrap;connectable=0;strokeColor=inherit;overflow=hidden;fillColor=none;top=0;left=0;bottom=0;right=0;pointerEvents=1;" parent="FOJua6uj2jGWdnx8fCcR-45" vertex="1">
          <mxGeometry x="60" width="60" height="44" as="geometry">
            <mxRectangle width="60" height="44" as="alternateBounds" />
          </mxGeometry>
        </mxCell>
        <mxCell id="FOJua6uj2jGWdnx8fCcR-48" value="" style="shape=tableRow;horizontal=0;startSize=0;swimlaneHead=0;swimlaneBody=0;strokeColor=inherit;top=0;left=0;bottom=0;right=0;collapsible=0;dropTarget=0;fillColor=none;points=[[0,0.5],[1,0.5]];portConstraint=eastwest;" parent="FOJua6uj2jGWdnx8fCcR-35" vertex="1">
          <mxGeometry y="164" width="120" height="40" as="geometry" />
        </mxCell>
        <mxCell id="FOJua6uj2jGWdnx8fCcR-49" value="memtoreg" style="shape=partialRectangle;html=1;whiteSpace=wrap;connectable=0;strokeColor=inherit;overflow=hidden;fillColor=none;top=0;left=0;bottom=0;right=0;pointerEvents=1;" parent="FOJua6uj2jGWdnx8fCcR-48" vertex="1">
          <mxGeometry width="60" height="40" as="geometry">
            <mxRectangle width="60" height="40" as="alternateBounds" />
          </mxGeometry>
        </mxCell>
        <mxCell id="FOJua6uj2jGWdnx8fCcR-50" value="0" style="shape=partialRectangle;html=1;whiteSpace=wrap;connectable=0;strokeColor=inherit;overflow=hidden;fillColor=none;top=0;left=0;bottom=0;right=0;pointerEvents=1;" parent="FOJua6uj2jGWdnx8fCcR-48" vertex="1">
          <mxGeometry x="60" width="60" height="40" as="geometry">
            <mxRectangle width="60" height="40" as="alternateBounds" />
          </mxGeometry>
        </mxCell>
        <mxCell id="FOJua6uj2jGWdnx8fCcR-51" value="" style="shape=table;startSize=0;container=1;collapsible=0;childLayout=tableLayout;" parent="1" vertex="1">
          <mxGeometry x="1236" y="114" width="120" height="160" as="geometry" />
        </mxCell>
        <mxCell id="FOJua6uj2jGWdnx8fCcR-52" value="" style="shape=tableRow;horizontal=0;startSize=0;swimlaneHead=0;swimlaneBody=0;strokeColor=inherit;top=0;left=0;bottom=0;right=0;collapsible=0;dropTarget=0;fillColor=none;points=[[0,0.5],[1,0.5]];portConstraint=eastwest;" parent="FOJua6uj2jGWdnx8fCcR-51" vertex="1">
          <mxGeometry width="120" height="40" as="geometry" />
        </mxCell>
        <mxCell id="FOJua6uj2jGWdnx8fCcR-53" value="reg_write" style="shape=partialRectangle;html=1;whiteSpace=wrap;connectable=0;strokeColor=inherit;overflow=hidden;fillColor=none;top=0;left=0;bottom=0;right=0;pointerEvents=1;" parent="FOJua6uj2jGWdnx8fCcR-52" vertex="1">
          <mxGeometry width="60" height="40" as="geometry">
            <mxRectangle width="60" height="40" as="alternateBounds" />
          </mxGeometry>
        </mxCell>
        <mxCell id="FOJua6uj2jGWdnx8fCcR-54" value="1" style="shape=partialRectangle;html=1;whiteSpace=wrap;connectable=0;strokeColor=inherit;overflow=hidden;fillColor=none;top=0;left=0;bottom=0;right=0;pointerEvents=1;" parent="FOJua6uj2jGWdnx8fCcR-52" vertex="1">
          <mxGeometry x="60" width="60" height="40" as="geometry">
            <mxRectangle width="60" height="40" as="alternateBounds" />
          </mxGeometry>
        </mxCell>
        <mxCell id="FOJua6uj2jGWdnx8fCcR-55" value="" style="shape=tableRow;horizontal=0;startSize=0;swimlaneHead=0;swimlaneBody=0;strokeColor=inherit;top=0;left=0;bottom=0;right=0;collapsible=0;dropTarget=0;fillColor=none;points=[[0,0.5],[1,0.5]];portConstraint=eastwest;" parent="FOJua6uj2jGWdnx8fCcR-51" vertex="1">
          <mxGeometry y="40" width="120" height="40" as="geometry" />
        </mxCell>
        <mxCell id="FOJua6uj2jGWdnx8fCcR-56" value="mem_write" style="shape=partialRectangle;html=1;whiteSpace=wrap;connectable=0;strokeColor=inherit;overflow=hidden;fillColor=none;top=0;left=0;bottom=0;right=0;pointerEvents=1;" parent="FOJua6uj2jGWdnx8fCcR-55" vertex="1">
          <mxGeometry width="60" height="40" as="geometry">
            <mxRectangle width="60" height="40" as="alternateBounds" />
          </mxGeometry>
        </mxCell>
        <mxCell id="FOJua6uj2jGWdnx8fCcR-57" value="0" style="shape=partialRectangle;html=1;whiteSpace=wrap;connectable=0;strokeColor=inherit;overflow=hidden;fillColor=none;top=0;left=0;bottom=0;right=0;pointerEvents=1;" parent="FOJua6uj2jGWdnx8fCcR-55" vertex="1">
          <mxGeometry x="60" width="60" height="40" as="geometry">
            <mxRectangle width="60" height="40" as="alternateBounds" />
          </mxGeometry>
        </mxCell>
        <mxCell id="FOJua6uj2jGWdnx8fCcR-58" value="" style="shape=tableRow;horizontal=0;startSize=0;swimlaneHead=0;swimlaneBody=0;strokeColor=inherit;top=0;left=0;bottom=0;right=0;collapsible=0;dropTarget=0;fillColor=none;points=[[0,0.5],[1,0.5]];portConstraint=eastwest;" parent="FOJua6uj2jGWdnx8fCcR-51" vertex="1">
          <mxGeometry y="80" width="120" height="40" as="geometry" />
        </mxCell>
        <mxCell id="FOJua6uj2jGWdnx8fCcR-59" value="mem_read" style="shape=partialRectangle;html=1;whiteSpace=wrap;connectable=0;strokeColor=inherit;overflow=hidden;fillColor=none;top=0;left=0;bottom=0;right=0;pointerEvents=1;" parent="FOJua6uj2jGWdnx8fCcR-58" vertex="1">
          <mxGeometry width="60" height="40" as="geometry">
            <mxRectangle width="60" height="40" as="alternateBounds" />
          </mxGeometry>
        </mxCell>
        <mxCell id="FOJua6uj2jGWdnx8fCcR-60" value="0" style="shape=partialRectangle;html=1;whiteSpace=wrap;connectable=0;strokeColor=inherit;overflow=hidden;fillColor=none;top=0;left=0;bottom=0;right=0;pointerEvents=1;" parent="FOJua6uj2jGWdnx8fCcR-58" vertex="1">
          <mxGeometry x="60" width="60" height="40" as="geometry">
            <mxRectangle width="60" height="40" as="alternateBounds" />
          </mxGeometry>
        </mxCell>
        <mxCell id="FOJua6uj2jGWdnx8fCcR-61" value="" style="shape=tableRow;horizontal=0;startSize=0;swimlaneHead=0;swimlaneBody=0;strokeColor=inherit;top=0;left=0;bottom=0;right=0;collapsible=0;dropTarget=0;fillColor=none;points=[[0,0.5],[1,0.5]];portConstraint=eastwest;" parent="FOJua6uj2jGWdnx8fCcR-51" vertex="1">
          <mxGeometry y="120" width="120" height="40" as="geometry" />
        </mxCell>
        <mxCell id="FOJua6uj2jGWdnx8fCcR-62" value="memtoreg" style="shape=partialRectangle;html=1;whiteSpace=wrap;connectable=0;strokeColor=inherit;overflow=hidden;fillColor=none;top=0;left=0;bottom=0;right=0;pointerEvents=1;" parent="FOJua6uj2jGWdnx8fCcR-61" vertex="1">
          <mxGeometry width="60" height="40" as="geometry">
            <mxRectangle width="60" height="40" as="alternateBounds" />
          </mxGeometry>
        </mxCell>
        <mxCell id="FOJua6uj2jGWdnx8fCcR-63" value="0" style="shape=partialRectangle;html=1;whiteSpace=wrap;connectable=0;strokeColor=inherit;overflow=hidden;fillColor=none;top=0;left=0;bottom=0;right=0;pointerEvents=1;" parent="FOJua6uj2jGWdnx8fCcR-61" vertex="1">
          <mxGeometry x="60" width="60" height="40" as="geometry">
            <mxRectangle width="60" height="40" as="alternateBounds" />
          </mxGeometry>
        </mxCell>
        <mxCell id="FOJua6uj2jGWdnx8fCcR-64" value="" style="shape=table;startSize=0;container=1;collapsible=0;childLayout=tableLayout;" parent="1" vertex="1">
          <mxGeometry x="1446" y="196" width="120" height="80" as="geometry" />
        </mxCell>
        <mxCell id="FOJua6uj2jGWdnx8fCcR-65" value="" style="shape=tableRow;horizontal=0;startSize=0;swimlaneHead=0;swimlaneBody=0;strokeColor=inherit;top=0;left=0;bottom=0;right=0;collapsible=0;dropTarget=0;fillColor=none;points=[[0,0.5],[1,0.5]];portConstraint=eastwest;" parent="FOJua6uj2jGWdnx8fCcR-64" vertex="1">
          <mxGeometry width="120" height="40" as="geometry" />
        </mxCell>
        <mxCell id="FOJua6uj2jGWdnx8fCcR-66" value="reg_write" style="shape=partialRectangle;html=1;whiteSpace=wrap;connectable=0;strokeColor=inherit;overflow=hidden;fillColor=none;top=0;left=0;bottom=0;right=0;pointerEvents=1;" parent="FOJua6uj2jGWdnx8fCcR-65" vertex="1">
          <mxGeometry width="60" height="40" as="geometry">
            <mxRectangle width="60" height="40" as="alternateBounds" />
          </mxGeometry>
        </mxCell>
        <mxCell id="FOJua6uj2jGWdnx8fCcR-67" value="0" style="shape=partialRectangle;html=1;whiteSpace=wrap;connectable=0;strokeColor=inherit;overflow=hidden;fillColor=none;top=0;left=0;bottom=0;right=0;pointerEvents=1;" parent="FOJua6uj2jGWdnx8fCcR-65" vertex="1">
          <mxGeometry x="60" width="60" height="40" as="geometry">
            <mxRectangle width="60" height="40" as="alternateBounds" />
          </mxGeometry>
        </mxCell>
        <mxCell id="FOJua6uj2jGWdnx8fCcR-68" value="" style="shape=tableRow;horizontal=0;startSize=0;swimlaneHead=0;swimlaneBody=0;strokeColor=inherit;top=0;left=0;bottom=0;right=0;collapsible=0;dropTarget=0;fillColor=none;points=[[0,0.5],[1,0.5]];portConstraint=eastwest;" parent="FOJua6uj2jGWdnx8fCcR-64" vertex="1">
          <mxGeometry y="40" width="120" height="40" as="geometry" />
        </mxCell>
        <mxCell id="FOJua6uj2jGWdnx8fCcR-69" value="memtoreg" style="shape=partialRectangle;html=1;whiteSpace=wrap;connectable=0;strokeColor=inherit;overflow=hidden;fillColor=none;top=0;left=0;bottom=0;right=0;pointerEvents=1;" parent="FOJua6uj2jGWdnx8fCcR-68" vertex="1">
          <mxGeometry width="60" height="40" as="geometry">
            <mxRectangle width="60" height="40" as="alternateBounds" />
          </mxGeometry>
        </mxCell>
        <mxCell id="FOJua6uj2jGWdnx8fCcR-70" value="0" style="shape=partialRectangle;html=1;whiteSpace=wrap;connectable=0;strokeColor=inherit;overflow=hidden;fillColor=none;top=0;left=0;bottom=0;right=0;pointerEvents=1;" parent="FOJua6uj2jGWdnx8fCcR-68" vertex="1">
          <mxGeometry x="60" width="60" height="40" as="geometry">
            <mxRectangle width="60" height="40" as="alternateBounds" />
          </mxGeometry>
        </mxCell>
        <mxCell id="FOJua6uj2jGWdnx8fCcR-71" style="edgeStyle=orthogonalEdgeStyle;rounded=0;orthogonalLoop=1;jettySize=auto;html=1;exitX=1;exitY=0.5;exitDx=0;exitDy=0;" parent="1" source="FOJua6uj2jGWdnx8fCcR-20" target="FOJua6uj2jGWdnx8fCcR-36" edge="1">
          <mxGeometry relative="1" as="geometry" />
        </mxCell>
        <mxCell id="FOJua6uj2jGWdnx8fCcR-72" style="edgeStyle=orthogonalEdgeStyle;rounded=0;orthogonalLoop=1;jettySize=auto;html=1;exitX=1;exitY=0.5;exitDx=0;exitDy=0;" parent="1" source="FOJua6uj2jGWdnx8fCcR-23" target="FOJua6uj2jGWdnx8fCcR-39" edge="1">
          <mxGeometry relative="1" as="geometry" />
        </mxCell>
        <mxCell id="FOJua6uj2jGWdnx8fCcR-73" style="edgeStyle=orthogonalEdgeStyle;rounded=0;orthogonalLoop=1;jettySize=auto;html=1;exitX=1;exitY=0.5;exitDx=0;exitDy=0;entryX=0;entryY=0.5;entryDx=0;entryDy=0;" parent="1" source="FOJua6uj2jGWdnx8fCcR-26" target="FOJua6uj2jGWdnx8fCcR-42" edge="1">
          <mxGeometry relative="1" as="geometry" />
        </mxCell>
        <mxCell id="FOJua6uj2jGWdnx8fCcR-74" style="edgeStyle=orthogonalEdgeStyle;rounded=0;orthogonalLoop=1;jettySize=auto;html=1;exitX=1;exitY=0.5;exitDx=0;exitDy=0;" parent="1" source="FOJua6uj2jGWdnx8fCcR-29" target="FOJua6uj2jGWdnx8fCcR-45" edge="1">
          <mxGeometry relative="1" as="geometry" />
        </mxCell>
        <mxCell id="FOJua6uj2jGWdnx8fCcR-75" style="edgeStyle=orthogonalEdgeStyle;rounded=0;orthogonalLoop=1;jettySize=auto;html=1;exitX=1;exitY=0.5;exitDx=0;exitDy=0;" parent="1" source="FOJua6uj2jGWdnx8fCcR-32" target="FOJua6uj2jGWdnx8fCcR-48" edge="1">
          <mxGeometry relative="1" as="geometry" />
        </mxCell>
        <mxCell id="FOJua6uj2jGWdnx8fCcR-76" style="edgeStyle=orthogonalEdgeStyle;rounded=0;orthogonalLoop=1;jettySize=auto;html=1;exitX=1;exitY=0.5;exitDx=0;exitDy=0;" parent="1" source="FOJua6uj2jGWdnx8fCcR-39" target="FOJua6uj2jGWdnx8fCcR-52" edge="1">
          <mxGeometry relative="1" as="geometry">
            <mxPoint x="1224" y="133.58823529411757" as="targetPoint" />
          </mxGeometry>
        </mxCell>
        <mxCell id="FOJua6uj2jGWdnx8fCcR-77" style="edgeStyle=orthogonalEdgeStyle;rounded=0;orthogonalLoop=1;jettySize=auto;html=1;exitX=1;exitY=0.5;exitDx=0;exitDy=0;entryX=0;entryY=0.5;entryDx=0;entryDy=0;" parent="1" source="FOJua6uj2jGWdnx8fCcR-42" target="FOJua6uj2jGWdnx8fCcR-55" edge="1">
          <mxGeometry relative="1" as="geometry" />
        </mxCell>
        <mxCell id="FOJua6uj2jGWdnx8fCcR-78" style="edgeStyle=orthogonalEdgeStyle;rounded=0;orthogonalLoop=1;jettySize=auto;html=1;exitX=1;exitY=0.5;exitDx=0;exitDy=0;entryX=0;entryY=0.5;entryDx=0;entryDy=0;" parent="1" source="FOJua6uj2jGWdnx8fCcR-45" target="FOJua6uj2jGWdnx8fCcR-58" edge="1">
          <mxGeometry relative="1" as="geometry">
            <Array as="points">
              <mxPoint x="1145" y="216" />
              <mxPoint x="1145" y="214" />
            </Array>
          </mxGeometry>
        </mxCell>
        <mxCell id="FOJua6uj2jGWdnx8fCcR-79" style="edgeStyle=orthogonalEdgeStyle;rounded=0;orthogonalLoop=1;jettySize=auto;html=1;exitX=1;exitY=0.5;exitDx=0;exitDy=0;entryX=0;entryY=0.5;entryDx=0;entryDy=0;" parent="1" source="FOJua6uj2jGWdnx8fCcR-48" target="FOJua6uj2jGWdnx8fCcR-61" edge="1">
          <mxGeometry relative="1" as="geometry" />
        </mxCell>
        <mxCell id="FOJua6uj2jGWdnx8fCcR-80" style="edgeStyle=orthogonalEdgeStyle;rounded=0;orthogonalLoop=1;jettySize=auto;html=1;exitX=1;exitY=0.5;exitDx=0;exitDy=0;entryX=0;entryY=0.5;entryDx=0;entryDy=0;" parent="1" source="FOJua6uj2jGWdnx8fCcR-52" target="FOJua6uj2jGWdnx8fCcR-65" edge="1">
          <mxGeometry relative="1" as="geometry" />
        </mxCell>
        <mxCell id="FOJua6uj2jGWdnx8fCcR-81" style="edgeStyle=orthogonalEdgeStyle;rounded=0;orthogonalLoop=1;jettySize=auto;html=1;exitX=1;exitY=0.5;exitDx=0;exitDy=0;entryX=0;entryY=0.5;entryDx=0;entryDy=0;" parent="1" source="FOJua6uj2jGWdnx8fCcR-61" target="FOJua6uj2jGWdnx8fCcR-68" edge="1">
          <mxGeometry relative="1" as="geometry" />
        </mxCell>
        <mxCell id="FOJua6uj2jGWdnx8fCcR-84" value="" style="shape=table;startSize=0;container=1;collapsible=0;childLayout=tableLayout;" parent="1" vertex="1">
          <mxGeometry x="1258" y="465" width="120" height="40" as="geometry" />
        </mxCell>
        <mxCell id="FOJua6uj2jGWdnx8fCcR-85" value="" style="shape=tableRow;horizontal=0;startSize=0;swimlaneHead=0;swimlaneBody=0;strokeColor=inherit;top=0;left=0;bottom=0;right=0;collapsible=0;dropTarget=0;fillColor=none;points=[[0,0.5],[1,0.5]];portConstraint=eastwest;" parent="FOJua6uj2jGWdnx8fCcR-84" vertex="1">
          <mxGeometry width="120" height="40" as="geometry" />
        </mxCell>
        <mxCell id="FOJua6uj2jGWdnx8fCcR-86" value="0" style="shape=partialRectangle;html=1;whiteSpace=wrap;connectable=0;strokeColor=inherit;overflow=hidden;fillColor=none;top=0;left=0;bottom=0;right=0;pointerEvents=1;" parent="FOJua6uj2jGWdnx8fCcR-85" vertex="1">
          <mxGeometry width="60" height="40" as="geometry">
            <mxRectangle width="60" height="40" as="alternateBounds" />
          </mxGeometry>
        </mxCell>
        <mxCell id="FOJua6uj2jGWdnx8fCcR-87" value="0" style="shape=partialRectangle;html=1;whiteSpace=wrap;connectable=0;strokeColor=inherit;overflow=hidden;fillColor=none;top=0;left=0;bottom=0;right=0;pointerEvents=1;" parent="FOJua6uj2jGWdnx8fCcR-85" vertex="1">
          <mxGeometry x="60" width="60" height="40" as="geometry">
            <mxRectangle width="60" height="40" as="alternateBounds" />
          </mxGeometry>
        </mxCell>
        <mxCell id="FOJua6uj2jGWdnx8fCcR-92" value="" style="endArrow=classic;html=1;rounded=0;exitX=1.031;exitY=0.75;exitDx=0;exitDy=0;exitPerimeter=0;entryX=0;entryY=0.907;entryDx=0;entryDy=0;entryPerimeter=0;" parent="1" source="RdgzW_rtt1vIjWclTSuY-187" target="RdgzW_rtt1vIjWclTSuY-159" edge="1">
          <mxGeometry width="50" height="50" relative="1" as="geometry">
            <mxPoint x="1366" y="768" as="sourcePoint" />
            <mxPoint x="866" y="668" as="targetPoint" />
            <Array as="points">
              <mxPoint x="1394" y="782" />
              <mxPoint x="856" y="784" />
              <mxPoint x="856" y="672" />
            </Array>
          </mxGeometry>
        </mxCell>
        <mxCell id="FOJua6uj2jGWdnx8fCcR-95" value="x" style="edgeLabel;html=1;align=center;verticalAlign=middle;resizable=0;points=[];" parent="FOJua6uj2jGWdnx8fCcR-92" vertex="1" connectable="0">
          <mxGeometry x="0.9572" y="2" relative="1" as="geometry">
            <mxPoint as="offset" />
          </mxGeometry>
        </mxCell>
        <mxCell id="FOJua6uj2jGWdnx8fCcR-93" value="" style="endArrow=classic;html=1;rounded=0;entryX=0;entryY=0.875;entryDx=0;entryDy=0;entryPerimeter=0;" parent="1" target="RdgzW_rtt1vIjWclTSuY-156" edge="1">
          <mxGeometry width="50" height="50" relative="1" as="geometry">
            <mxPoint x="856" y="672" as="sourcePoint" />
            <mxPoint x="908" y="620" as="targetPoint" />
            <Array as="points">
              <mxPoint x="856" y="570" />
            </Array>
          </mxGeometry>
        </mxCell>
        <mxCell id="FOJua6uj2jGWdnx8fCcR-94" value="x" style="edgeLabel;html=1;align=center;verticalAlign=middle;resizable=0;points=[];" parent="FOJua6uj2jGWdnx8fCcR-93" vertex="1" connectable="0">
          <mxGeometry x="0.3014" y="1" relative="1" as="geometry">
            <mxPoint as="offset" />
          </mxGeometry>
        </mxCell>
        <mxCell id="aolI5gFk3EcSTFQRaghS-1" value="" style="shape=table;startSize=0;container=1;collapsible=0;childLayout=tableLayout;" vertex="1" parent="1">
          <mxGeometry x="615" y="314" width="120" height="60" as="geometry" />
        </mxCell>
        <mxCell id="aolI5gFk3EcSTFQRaghS-2" value="" style="shape=tableRow;horizontal=0;startSize=0;swimlaneHead=0;swimlaneBody=0;strokeColor=inherit;top=0;left=0;bottom=0;right=0;collapsible=0;dropTarget=0;fillColor=none;points=[[0,0.5],[1,0.5]];portConstraint=eastwest;" vertex="1" parent="aolI5gFk3EcSTFQRaghS-1">
          <mxGeometry width="120" height="20" as="geometry" />
        </mxCell>
        <mxCell id="aolI5gFk3EcSTFQRaghS-3" value="x1" style="shape=partialRectangle;html=1;whiteSpace=wrap;connectable=0;strokeColor=inherit;overflow=hidden;fillColor=none;top=0;left=0;bottom=0;right=0;pointerEvents=1;" vertex="1" parent="aolI5gFk3EcSTFQRaghS-2">
          <mxGeometry width="60" height="20" as="geometry">
            <mxRectangle width="60" height="20" as="alternateBounds" />
          </mxGeometry>
        </mxCell>
        <mxCell id="aolI5gFk3EcSTFQRaghS-4" value="0" style="shape=partialRectangle;html=1;whiteSpace=wrap;connectable=0;strokeColor=inherit;overflow=hidden;fillColor=none;top=0;left=0;bottom=0;right=0;pointerEvents=1;" vertex="1" parent="aolI5gFk3EcSTFQRaghS-2">
          <mxGeometry x="60" width="60" height="20" as="geometry">
            <mxRectangle width="60" height="20" as="alternateBounds" />
          </mxGeometry>
        </mxCell>
        <mxCell id="aolI5gFk3EcSTFQRaghS-5" value="" style="shape=tableRow;horizontal=0;startSize=0;swimlaneHead=0;swimlaneBody=0;strokeColor=inherit;top=0;left=0;bottom=0;right=0;collapsible=0;dropTarget=0;fillColor=none;points=[[0,0.5],[1,0.5]];portConstraint=eastwest;" vertex="1" parent="aolI5gFk3EcSTFQRaghS-1">
          <mxGeometry y="20" width="120" height="20" as="geometry" />
        </mxCell>
        <mxCell id="aolI5gFk3EcSTFQRaghS-6" value="x2" style="shape=partialRectangle;html=1;whiteSpace=wrap;connectable=0;strokeColor=inherit;overflow=hidden;fillColor=none;top=0;left=0;bottom=0;right=0;pointerEvents=1;" vertex="1" parent="aolI5gFk3EcSTFQRaghS-5">
          <mxGeometry width="60" height="20" as="geometry">
            <mxRectangle width="60" height="20" as="alternateBounds" />
          </mxGeometry>
        </mxCell>
        <mxCell id="aolI5gFk3EcSTFQRaghS-7" value="0" style="shape=partialRectangle;html=1;whiteSpace=wrap;connectable=0;strokeColor=inherit;overflow=hidden;fillColor=none;top=0;left=0;bottom=0;right=0;pointerEvents=1;" vertex="1" parent="aolI5gFk3EcSTFQRaghS-5">
          <mxGeometry x="60" width="60" height="20" as="geometry">
            <mxRectangle width="60" height="20" as="alternateBounds" />
          </mxGeometry>
        </mxCell>
        <mxCell id="aolI5gFk3EcSTFQRaghS-8" value="" style="shape=tableRow;horizontal=0;startSize=0;swimlaneHead=0;swimlaneBody=0;strokeColor=inherit;top=0;left=0;bottom=0;right=0;collapsible=0;dropTarget=0;fillColor=none;points=[[0,0.5],[1,0.5]];portConstraint=eastwest;" vertex="1" parent="aolI5gFk3EcSTFQRaghS-1">
          <mxGeometry y="40" width="120" height="20" as="geometry" />
        </mxCell>
        <mxCell id="aolI5gFk3EcSTFQRaghS-9" value="x3" style="shape=partialRectangle;html=1;whiteSpace=wrap;connectable=0;strokeColor=inherit;overflow=hidden;fillColor=none;top=0;left=0;bottom=0;right=0;pointerEvents=1;" vertex="1" parent="aolI5gFk3EcSTFQRaghS-8">
          <mxGeometry width="60" height="20" as="geometry">
            <mxRectangle width="60" height="20" as="alternateBounds" />
          </mxGeometry>
        </mxCell>
        <mxCell id="aolI5gFk3EcSTFQRaghS-10" value="0" style="shape=partialRectangle;html=1;whiteSpace=wrap;connectable=0;strokeColor=inherit;overflow=hidden;fillColor=none;top=0;left=0;bottom=0;right=0;pointerEvents=1;" vertex="1" parent="aolI5gFk3EcSTFQRaghS-8">
          <mxGeometry x="60" width="60" height="20" as="geometry">
            <mxRectangle width="60" height="20" as="alternateBounds" />
          </mxGeometry>
        </mxCell>
        <mxCell id="aolI5gFk3EcSTFQRaghS-11" value="" style="shape=table;startSize=0;container=1;collapsible=0;childLayout=tableLayout;" vertex="1" parent="1">
          <mxGeometry x="984" y="320" width="120" height="60" as="geometry" />
        </mxCell>
        <mxCell id="aolI5gFk3EcSTFQRaghS-12" value="" style="shape=tableRow;horizontal=0;startSize=0;swimlaneHead=0;swimlaneBody=0;strokeColor=inherit;top=0;left=0;bottom=0;right=0;collapsible=0;dropTarget=0;fillColor=none;points=[[0,0.5],[1,0.5]];portConstraint=eastwest;" vertex="1" parent="aolI5gFk3EcSTFQRaghS-11">
          <mxGeometry width="120" height="20" as="geometry" />
        </mxCell>
        <mxCell id="aolI5gFk3EcSTFQRaghS-13" value="forwardA" style="shape=partialRectangle;html=1;whiteSpace=wrap;connectable=0;strokeColor=inherit;overflow=hidden;fillColor=none;top=0;left=0;bottom=0;right=0;pointerEvents=1;" vertex="1" parent="aolI5gFk3EcSTFQRaghS-12">
          <mxGeometry width="60" height="20" as="geometry">
            <mxRectangle width="60" height="20" as="alternateBounds" />
          </mxGeometry>
        </mxCell>
        <mxCell id="aolI5gFk3EcSTFQRaghS-14" value="2" style="shape=partialRectangle;html=1;whiteSpace=wrap;connectable=0;strokeColor=inherit;overflow=hidden;fillColor=none;top=0;left=0;bottom=0;right=0;pointerEvents=1;" vertex="1" parent="aolI5gFk3EcSTFQRaghS-12">
          <mxGeometry x="60" width="60" height="20" as="geometry">
            <mxRectangle width="60" height="20" as="alternateBounds" />
          </mxGeometry>
        </mxCell>
        <mxCell id="aolI5gFk3EcSTFQRaghS-15" value="" style="shape=tableRow;horizontal=0;startSize=0;swimlaneHead=0;swimlaneBody=0;strokeColor=inherit;top=0;left=0;bottom=0;right=0;collapsible=0;dropTarget=0;fillColor=none;points=[[0,0.5],[1,0.5]];portConstraint=eastwest;" vertex="1" parent="aolI5gFk3EcSTFQRaghS-11">
          <mxGeometry y="20" width="120" height="20" as="geometry" />
        </mxCell>
        <mxCell id="aolI5gFk3EcSTFQRaghS-16" value="forwardB" style="shape=partialRectangle;html=1;whiteSpace=wrap;connectable=0;strokeColor=inherit;overflow=hidden;fillColor=none;top=0;left=0;bottom=0;right=0;pointerEvents=1;" vertex="1" parent="aolI5gFk3EcSTFQRaghS-15">
          <mxGeometry width="60" height="20" as="geometry">
            <mxRectangle width="60" height="20" as="alternateBounds" />
          </mxGeometry>
        </mxCell>
        <mxCell id="aolI5gFk3EcSTFQRaghS-17" value="2" style="shape=partialRectangle;html=1;whiteSpace=wrap;connectable=0;strokeColor=inherit;overflow=hidden;fillColor=none;top=0;left=0;bottom=0;right=0;pointerEvents=1;" vertex="1" parent="aolI5gFk3EcSTFQRaghS-15">
          <mxGeometry x="60" width="60" height="20" as="geometry">
            <mxRectangle width="60" height="20" as="alternateBounds" />
          </mxGeometry>
        </mxCell>
        <mxCell id="aolI5gFk3EcSTFQRaghS-18" value="" style="shape=tableRow;horizontal=0;startSize=0;swimlaneHead=0;swimlaneBody=0;strokeColor=inherit;top=0;left=0;bottom=0;right=0;collapsible=0;dropTarget=0;fillColor=none;points=[[0,0.5],[1,0.5]];portConstraint=eastwest;" vertex="1" parent="aolI5gFk3EcSTFQRaghS-11">
          <mxGeometry y="40" width="120" height="20" as="geometry" />
        </mxCell>
        <mxCell id="aolI5gFk3EcSTFQRaghS-19" value="forwardC" style="shape=partialRectangle;html=1;whiteSpace=wrap;connectable=0;strokeColor=inherit;overflow=hidden;fillColor=none;top=0;left=0;bottom=0;right=0;pointerEvents=1;" vertex="1" parent="aolI5gFk3EcSTFQRaghS-18">
          <mxGeometry width="60" height="20" as="geometry">
            <mxRectangle width="60" height="20" as="alternateBounds" />
          </mxGeometry>
        </mxCell>
        <mxCell id="aolI5gFk3EcSTFQRaghS-20" value="0" style="shape=partialRectangle;html=1;whiteSpace=wrap;connectable=0;strokeColor=inherit;overflow=hidden;fillColor=none;top=0;left=0;bottom=0;right=0;pointerEvents=1;" vertex="1" parent="aolI5gFk3EcSTFQRaghS-18">
          <mxGeometry x="60" width="60" height="20" as="geometry">
            <mxRectangle width="60" height="20" as="alternateBounds" />
          </mxGeometry>
        </mxCell>
      </root>
    </mxGraphModel>
  </diagram>
</mxfile>
